solid OpenSCAD_Model
  facet normal 0 -1 0
    outer loop
      vertex 78.25 -22.39 -80
      vertex 75.64999999850988 -22.39 80
      vertex 75.64999999850988 -22.39 -80
    endloop
  endfacet
  facet normal 0 -1 0
    outer loop
      vertex 78.25 -22.39 -80
      vertex 78.25 -22.39 80
      vertex 75.64999999850988 -22.39 80
    endloop
  endfacet
  facet normal 1 0 0
    outer loop
      vertex 78.25 -21.090000002980233 -80
      vertex 78.25 -22.39 80
      vertex 78.25 -22.39 -80
    endloop
  endfacet
  facet normal 1 0 0
    outer loop
      vertex 78.25 -21.090000002980233 -80
      vertex 78.25 -21.090000002980233 80
      vertex 78.25 -22.39 80
    endloop
  endfacet
  facet normal 0 1 0
    outer loop
      vertex 74.35000000149012 -21.090000002980233 -80
      vertex 78.25 -21.090000002980233 80
      vertex 78.25 -21.090000002980233 -80
    endloop
  endfacet
  facet normal 0 1 0
    outer loop
      vertex 74.35000000149012 -21.090000002980233 -80
      vertex 74.35000000149012 -21.090000002980233 80
      vertex 78.25 -21.090000002980233 80
    endloop
  endfacet
  facet normal -1 0 0
    outer loop
      vertex 74.35000000149012 -24.450000002384186 -80
      vertex 74.35000000149012 -21.090000002980233 80
      vertex 74.35000000149012 -21.090000002980233 -80
    endloop
  endfacet
  facet normal -1 0 0
    outer loop
      vertex 74.35000000149012 -24.450000002384186 -80
      vertex 74.35000000149012 -24.450000002384186 80
      vertex 74.35000000149012 -21.090000002980233 80
    endloop
  endfacet
  facet normal 0 1 0
    outer loop
      vertex -74.35000000149012 -24.450000002384186 -80
      vertex 74.35000000149012 -24.450000002384186 80
      vertex 74.35000000149012 -24.450000002384186 -80
    endloop
  endfacet
  facet normal 0 1 0
    outer loop
      vertex -74.35000000149012 -24.450000002384186 -80
      vertex -74.35000000149012 -24.450000002384186 80
      vertex 74.35000000149012 -24.450000002384186 80
    endloop
  endfacet
  facet normal 1 0 0
    outer loop
      vertex -74.35000000149012 -21.090000002980233 -80
      vertex -74.35000000149012 -24.450000002384186 80
      vertex -74.35000000149012 -24.450000002384186 -80
    endloop
  endfacet
  facet normal 1 0 0
    outer loop
      vertex -74.35000000149012 -21.090000002980233 -80
      vertex -74.35000000149012 -21.090000002980233 80
      vertex -74.35000000149012 -24.450000002384186 80
    endloop
  endfacet
  facet normal 0 1 0
    outer loop
      vertex -78.25 -21.090000002980233 -80
      vertex -74.35000000149012 -21.090000002980233 80
      vertex -74.35000000149012 -21.090000002980233 -80
    endloop
  endfacet
  facet normal 0 1 0
    outer loop
      vertex -78.25 -21.090000002980233 -80
      vertex -78.25 -21.090000002980233 80
      vertex -74.35000000149012 -21.090000002980233 80
    endloop
  endfacet
  facet normal -1 0 0
    outer loop
      vertex -78.25 -22.39 -80
      vertex -78.25 -21.090000002980233 80
      vertex -78.25 -21.090000002980233 -80
    endloop
  endfacet
  facet normal -1 0 0
    outer loop
      vertex -78.25 -22.39 -80
      vertex -78.25 -22.39 80
      vertex -78.25 -21.090000002980233 80
    endloop
  endfacet
  facet normal 0 -1 0
    outer loop
      vertex -75.64999999850988 -22.39 -80
      vertex -78.25 -22.39 80
      vertex -78.25 -22.39 -80
    endloop
  endfacet
  facet normal 0 -1 0
    outer loop
      vertex -75.64999999850988 -22.39 -80
      vertex -75.64999999850988 -22.39 80
      vertex -78.25 -22.39 80
    endloop
  endfacet
  facet normal -1 0 0
    outer loop
      vertex -75.64999999850988 -25.749999999403954 -80
      vertex -75.64999999850988 -22.39 80
      vertex -75.64999999850988 -22.39 -80
    endloop
  endfacet
  facet normal -1 0 0
    outer loop
      vertex -75.64999999850988 -25.749999999403954 -80
      vertex -75.64999999850988 -25.749999999403954 80
      vertex -75.64999999850988 -22.39 80
    endloop
  endfacet
  facet normal 0 -1 0
    outer loop
      vertex 75.64999999850988 -25.749999999403954 -80
      vertex -75.64999999850988 -25.749999999403954 80
      vertex -75.64999999850988 -25.749999999403954 -80
    endloop
  endfacet
  facet normal 0 -1 0
    outer loop
      vertex 75.64999999850988 -25.749999999403954 -80
      vertex 75.64999999850988 -25.749999999403954 80
      vertex -75.64999999850988 -25.749999999403954 80
    endloop
  endfacet
  facet normal 1 0 0
    outer loop
      vertex 75.64999999850988 -22.39 -80
      vertex 75.64999999850988 -25.749999999403954 80
      vertex 75.64999999850988 -25.749999999403954 -80
    endloop
  endfacet
  facet normal 1 0 0
    outer loop
      vertex 75.64999999850988 -22.39 -80
      vertex 75.64999999850988 -22.39 80
      vertex 75.64999999850988 -25.749999999403954 80
    endloop
  endfacet
  facet normal 0 0 1
    outer loop
      vertex 75.64999999850988 -22.39 80
      vertex 78.25 -22.39 80
      vertex 78.25 -21.090000002980233 80
    endloop
  endfacet
  facet normal 0 0 1
    outer loop
      vertex 75.64999999850988 -22.39 80
      vertex 78.25 -21.090000002980233 80
      vertex 74.35000000149012 -21.090000002980233 80
    endloop
  endfacet
  facet normal 0 0 1
    outer loop
      vertex 75.64999999850988 -22.39 80
      vertex 74.35000000149012 -21.090000002980233 80
      vertex 74.35000000149012 -24.450000002384186 80
    endloop
  endfacet
  facet normal 0 0 1
    outer loop
      vertex 75.64999999850988 -25.749999999403954 80
      vertex 75.64999999850988 -22.39 80
      vertex 74.35000000149012 -24.450000002384186 80
    endloop
  endfacet
  facet normal 0 0 1
    outer loop
      vertex -78.25 -21.090000002980233 80
      vertex -78.25 -22.39 80
      vertex -75.64999999850988 -22.39 80
    endloop
  endfacet
  facet normal 0 0 1
    outer loop
      vertex -74.35000000149012 -21.090000002980233 80
      vertex -78.25 -21.090000002980233 80
      vertex -75.64999999850988 -22.39 80
    endloop
  endfacet
  facet normal 0 0 1
    outer loop
      vertex -74.35000000149012 -24.450000002384186 80
      vertex -74.35000000149012 -21.090000002980233 80
      vertex -75.64999999850988 -22.39 80
    endloop
  endfacet
  facet normal 0 0 1
    outer loop
      vertex -74.35000000149012 -24.450000002384186 80
      vertex -75.64999999850988 -22.39 80
      vertex -75.64999999850988 -25.749999999403954 80
    endloop
  endfacet
  facet normal 0 0 1
    outer loop
      vertex -75.64999999850988 -25.749999999403954 80
      vertex 75.64999999850988 -25.749999999403954 80
      vertex 74.35000000149012 -24.450000002384186 80
    endloop
  endfacet
  facet normal 0 0 1
    outer loop
      vertex -75.64999999850988 -25.749999999403954 80
      vertex 74.35000000149012 -24.450000002384186 80
      vertex -74.35000000149012 -24.450000002384186 80
    endloop
  endfacet
  facet normal 0 0 -1
    outer loop
      vertex 78.25 -21.090000002980233 -80
      vertex 78.25 -22.39 -80
      vertex 75.64999999850988 -22.39 -80
    endloop
  endfacet
  facet normal 0 0 -1
    outer loop
      vertex 74.35000000149012 -21.090000002980233 -80
      vertex 78.25 -21.090000002980233 -80
      vertex 75.64999999850988 -22.39 -80
    endloop
  endfacet
  facet normal 0 0 -1
    outer loop
      vertex 74.35000000149012 -24.450000002384186 -80
      vertex 74.35000000149012 -21.090000002980233 -80
      vertex 75.64999999850988 -22.39 -80
    endloop
  endfacet
  facet normal 0 0 -1
    outer loop
      vertex 74.35000000149012 -24.450000002384186 -80
      vertex 75.64999999850988 -22.39 -80
      vertex 75.64999999850988 -25.749999999403954 -80
    endloop
  endfacet
  facet normal 0 0 -1
    outer loop
      vertex -75.64999999850988 -22.39 -80
      vertex -78.25 -22.39 -80
      vertex -78.25 -21.090000002980233 -80
    endloop
  endfacet
  facet normal 0 0 -1
    outer loop
      vertex -75.64999999850988 -22.39 -80
      vertex -78.25 -21.090000002980233 -80
      vertex -74.35000000149012 -21.090000002980233 -80
    endloop
  endfacet
  facet normal 0 0 -1
    outer loop
      vertex -75.64999999850988 -22.39 -80
      vertex -74.35000000149012 -21.090000002980233 -80
      vertex -74.35000000149012 -24.450000002384186 -80
    endloop
  endfacet
  facet normal 0 0 -1
    outer loop
      vertex -75.64999999850988 -25.749999999403954 -80
      vertex -75.64999999850988 -22.39 -80
      vertex -74.35000000149012 -24.450000002384186 -80
    endloop
  endfacet
  facet normal 0 0 -1
    outer loop
      vertex 74.35000000149012 -24.450000002384186 -80
      vertex 75.64999999850988 -25.749999999403954 -80
      vertex -75.64999999850988 -25.749999999403954 -80
    endloop
  endfacet
  facet normal 0 0 -1
    outer loop
      vertex -74.35000000149012 -24.450000002384186 -80
      vertex 74.35000000149012 -24.450000002384186 -80
      vertex -75.64999999850988 -25.749999999403954 -80
    endloop
  endfacet
endsolid OpenSCAD_Model
