ISO-10303-21;
HEADER;
FILE_DESCRIPTION(('FreeCAD Model'),'2;1');
FILE_NAME('Open CASCADE Shape Model','2026-05-04T00:39:09',('FreeCAD'),(
    'FreeCAD'),'Open CASCADE STEP processor 7.9','FreeCAD','Unknown');
FILE_SCHEMA(('AUTOMOTIVE_DESIGN { 1 0 10303 214 1 1 1 1 }'));
ENDSEC;
DATA;
#1 = APPLICATION_PROTOCOL_DEFINITION('international standard',
  'automotive_design',2000,#2);
#2 = APPLICATION_CONTEXT(
  'core data for automotive mechanical design processes');
#3 = SHAPE_DEFINITION_REPRESENTATION(#4,#10);
#4 = PRODUCT_DEFINITION_SHAPE('','',#5);
#5 = PRODUCT_DEFINITION('design','',#6,#9);
#6 = PRODUCT_DEFINITION_FORMATION('','',#7);
#7 = PRODUCT('Open CASCADE STEP translator 7.9 1',
  'Open CASCADE STEP translator 7.9 1','',(#8));
#8 = PRODUCT_CONTEXT('',#2,'mechanical');
#9 = PRODUCT_DEFINITION_CONTEXT('part definition',#2,'design');
#10 = ADVANCED_BREP_SHAPE_REPRESENTATION('',(#11,#15),#567);
#11 = AXIS2_PLACEMENT_3D('',#12,#13,#14);
#12 = CARTESIAN_POINT('',(0.,0.,0.));
#13 = DIRECTION('',(0.,0.,1.));
#14 = DIRECTION('',(1.,0.,-0.));
#15 = MANIFOLD_SOLID_BREP('',#16);
#16 = CLOSED_SHELL('',(#17,#49,#72,#95,#125,#141,#157,#180,#203,#219,
    #242,#265,#281,#304,#320,#343,#366,#387,#398,#419,#430,#446,#469,
    #492,#508,#524,#540,#556));
#17 = ADVANCED_FACE('',(#18),#44,.T.);
#18 = FACE_BOUND('',#19,.T.);
#19 = EDGE_LOOP('',(#20,#30,#38));
#20 = ORIENTED_EDGE('',*,*,#21,.T.);
#21 = EDGE_CURVE('',#22,#24,#26,.T.);
#22 = VERTEX_POINT('',#23);
#23 = CARTESIAN_POINT('',(0.,0.,0.));
#24 = VERTEX_POINT('',#25);
#25 = CARTESIAN_POINT('',(95.199996948242,7.110000133514,0.));
#26 = LINE('',#27,#28);
#27 = CARTESIAN_POINT('',(0.,0.,0.));
#28 = VECTOR('',#29,1.);
#29 = DIRECTION('',(0.997222697625,7.447745525781E-02,0.));
#30 = ORIENTED_EDGE('',*,*,#31,.T.);
#31 = EDGE_CURVE('',#24,#32,#34,.T.);
#32 = VERTEX_POINT('',#33);
#33 = CARTESIAN_POINT('',(100.19999694824,0.,0.));
#34 = LINE('',#35,#36);
#35 = CARTESIAN_POINT('',(95.199996948242,7.110000133514,0.));
#36 = VECTOR('',#37,1.);
#37 = DIRECTION('',(0.575236888873,-0.817986871337,0.));
#38 = ORIENTED_EDGE('',*,*,#39,.T.);
#39 = EDGE_CURVE('',#32,#22,#40,.T.);
#40 = LINE('',#41,#42);
#41 = CARTESIAN_POINT('',(100.19999694824,0.,0.));
#42 = VECTOR('',#43,1.);
#43 = DIRECTION('',(-1.,0.,0.));
#44 = PLANE('',#45);
#45 = AXIS2_PLACEMENT_3D('',#46,#47,#48);
#46 = CARTESIAN_POINT('',(50.956732391518,1.811919839015,0.));
#47 = DIRECTION('',(-0.,-0.,-1.));
#48 = DIRECTION('',(-1.,0.,0.));
#49 = ADVANCED_FACE('',(#50),#67,.T.);
#50 = FACE_BOUND('',#51,.T.);
#51 = EDGE_LOOP('',(#52,#60,#66));
#52 = ORIENTED_EDGE('',*,*,#53,.T.);
#53 = EDGE_CURVE('',#22,#54,#56,.T.);
#54 = VERTEX_POINT('',#55);
#55 = CARTESIAN_POINT('',(95.199996948242,41.709999084473,0.));
#56 = LINE('',#57,#58);
#57 = CARTESIAN_POINT('',(0.,0.,0.));
#58 = VECTOR('',#59,1.);
#59 = DIRECTION('',(0.915945221817,0.401303315001,0.));
#60 = ORIENTED_EDGE('',*,*,#61,.T.);
#61 = EDGE_CURVE('',#54,#24,#62,.T.);
#62 = LINE('',#63,#64);
#63 = CARTESIAN_POINT('',(95.199996948242,41.709999084473,0.));
#64 = VECTOR('',#65,1.);
#65 = DIRECTION('',(0.,-1.,0.));
#66 = ORIENTED_EDGE('',*,*,#21,.F.);
#67 = PLANE('',#68);
#68 = AXIS2_PLACEMENT_3D('',#69,#70,#71);
#69 = CARTESIAN_POINT('',(54.638244278569,14.322802488391,0.));
#70 = DIRECTION('',(-0.,-0.,-1.));
#71 = DIRECTION('',(-1.,0.,0.));
#72 = ADVANCED_FACE('',(#73),#90,.T.);
#73 = FACE_BOUND('',#74,.T.);
#74 = EDGE_LOOP('',(#75,#76,#84));
#75 = ORIENTED_EDGE('',*,*,#39,.F.);
#76 = ORIENTED_EDGE('',*,*,#77,.T.);
#77 = EDGE_CURVE('',#32,#78,#80,.T.);
#78 = VERTEX_POINT('',#79);
#79 = CARTESIAN_POINT('',(100.19999694824,0.,9.5));
#80 = LINE('',#81,#82);
#81 = CARTESIAN_POINT('',(100.19999694824,0.,0.));
#82 = VECTOR('',#83,1.);
#83 = DIRECTION('',(0.,0.,1.));
#84 = ORIENTED_EDGE('',*,*,#85,.F.);
#85 = EDGE_CURVE('',#22,#78,#86,.T.);
#86 = LINE('',#87,#88);
#87 = CARTESIAN_POINT('',(0.,0.,0.));
#88 = VECTOR('',#89,1.);
#89 = DIRECTION('',(0.995535571365,0.,9.438710794429E-02));
#90 = PLANE('',#91);
#91 = AXIS2_PLACEMENT_3D('',#92,#93,#94);
#92 = CARTESIAN_POINT('',(52.362663026643,0.,2.487335447478));
#93 = DIRECTION('',(-0.,-1.,-0.));
#94 = DIRECTION('',(0.,0.,-1.));
#95 = ADVANCED_FACE('',(#96),#120,.T.);
#96 = FACE_BOUND('',#97,.T.);
#97 = EDGE_LOOP('',(#98,#106,#114));
#98 = ORIENTED_EDGE('',*,*,#99,.T.);
#99 = EDGE_CURVE('',#22,#100,#102,.T.);
#100 = VERTEX_POINT('',#101);
#101 = CARTESIAN_POINT('',(0.,0.,9.5));
#102 = LINE('',#103,#104);
#103 = CARTESIAN_POINT('',(0.,0.,0.));
#104 = VECTOR('',#105,1.);
#105 = DIRECTION('',(0.,0.,1.));
#106 = ORIENTED_EDGE('',*,*,#107,.T.);
#107 = EDGE_CURVE('',#100,#108,#110,.T.);
#108 = VERTEX_POINT('',#109);
#109 = CARTESIAN_POINT('',(0.,69.849998474121,9.5));
#110 = LINE('',#111,#112);
#111 = CARTESIAN_POINT('',(0.,0.,9.5));
#112 = VECTOR('',#113,1.);
#113 = DIRECTION('',(0.,1.,0.));
#114 = ORIENTED_EDGE('',*,*,#115,.T.);
#115 = EDGE_CURVE('',#108,#22,#116,.T.);
#116 = LINE('',#117,#118);
#117 = CARTESIAN_POINT('',(0.,69.849998474121,9.5));
#118 = VECTOR('',#119,1.);
#119 = DIRECTION('',(0.,-0.990877584282,-0.134765028723));
#120 = PLANE('',#121);
#121 = AXIS2_PLACEMENT_3D('',#122,#123,#124);
#122 = CARTESIAN_POINT('',(0.,32.710765999289,6.964233237772));
#123 = DIRECTION('',(-1.,-0.,-0.));
#124 = DIRECTION('',(0.,0.,-1.));
#125 = ADVANCED_FACE('',(#126),#136,.T.);
#126 = FACE_BOUND('',#127,.T.);
#127 = EDGE_LOOP('',(#128,#129,#135));
#128 = ORIENTED_EDGE('',*,*,#85,.T.);
#129 = ORIENTED_EDGE('',*,*,#130,.T.);
#130 = EDGE_CURVE('',#78,#100,#131,.T.);
#131 = LINE('',#132,#133);
#132 = CARTESIAN_POINT('',(100.19999694824,0.,9.5));
#133 = VECTOR('',#134,1.);
#134 = DIRECTION('',(-1.,0.,0.));
#135 = ORIENTED_EDGE('',*,*,#99,.F.);
#136 = PLANE('',#137);
#137 = AXIS2_PLACEMENT_3D('',#138,#139,#140);
#138 = CARTESIAN_POINT('',(47.837333921599,0.,7.012664552522));
#139 = DIRECTION('',(-0.,-1.,-0.));
#140 = DIRECTION('',(0.,0.,-1.));
#141 = ADVANCED_FACE('',(#142),#152,.T.);
#142 = FACE_BOUND('',#143,.T.);
#143 = EDGE_LOOP('',(#144,#145,#151));
#144 = ORIENTED_EDGE('',*,*,#130,.F.);
#145 = ORIENTED_EDGE('',*,*,#146,.T.);
#146 = EDGE_CURVE('',#78,#108,#147,.T.);
#147 = LINE('',#148,#149);
#148 = CARTESIAN_POINT('',(100.19999694824,0.,9.5));
#149 = VECTOR('',#150,1.);
#150 = DIRECTION('',(-0.820345789995,0.571867803638,0.));
#151 = ORIENTED_EDGE('',*,*,#107,.F.);
#152 = PLANE('',#153);
#153 = AXIS2_PLACEMENT_3D('',#154,#155,#156);
#154 = CARTESIAN_POINT('',(38.123402334905,22.948403097844,9.5));
#155 = DIRECTION('',(0.,0.,1.));
#156 = DIRECTION('',(1.,0.,-0.));
#157 = ADVANCED_FACE('',(#158),#175,.T.);
#158 = FACE_BOUND('',#159,.T.);
#159 = EDGE_LOOP('',(#160,#161,#169));
#160 = ORIENTED_EDGE('',*,*,#115,.F.);
#161 = ORIENTED_EDGE('',*,*,#162,.T.);
#162 = EDGE_CURVE('',#108,#163,#165,.T.);
#163 = VERTEX_POINT('',#164);
#164 = CARTESIAN_POINT('',(0.,69.849998474121,0.));
#165 = LINE('',#166,#167);
#166 = CARTESIAN_POINT('',(0.,69.849998474121,9.5));
#167 = VECTOR('',#168,1.);
#168 = DIRECTION('',(0.,0.,-1.));
#169 = ORIENTED_EDGE('',*,*,#170,.T.);
#170 = EDGE_CURVE('',#163,#22,#171,.T.);
#171 = LINE('',#172,#173);
#172 = CARTESIAN_POINT('',(0.,69.849998474121,0.));
#173 = VECTOR('',#174,1.);
#174 = DIRECTION('',(0.,-1.,0.));
#175 = PLANE('',#176);
#176 = AXIS2_PLACEMENT_3D('',#177,#178,#179);
#177 = CARTESIAN_POINT('',(0.,37.139232474832,2.535766762228));
#178 = DIRECTION('',(-1.,-0.,-0.));
#179 = DIRECTION('',(0.,0.,-1.));
#180 = ADVANCED_FACE('',(#181),#198,.T.);
#181 = FACE_BOUND('',#182,.T.);
#182 = EDGE_LOOP('',(#183,#184,#192));
#183 = ORIENTED_EDGE('',*,*,#170,.F.);
#184 = ORIENTED_EDGE('',*,*,#185,.T.);
#185 = EDGE_CURVE('',#163,#186,#188,.T.);
#186 = VERTEX_POINT('',#187);
#187 = CARTESIAN_POINT('',(100.19999694824,69.849998474121,0.));
#188 = LINE('',#189,#190);
#189 = CARTESIAN_POINT('',(0.,69.849998474121,0.));
#190 = VECTOR('',#191,1.);
#191 = DIRECTION('',(1.,0.,0.));
#192 = ORIENTED_EDGE('',*,*,#193,.T.);
#193 = EDGE_CURVE('',#186,#22,#194,.T.);
#194 = LINE('',#195,#196);
#195 = CARTESIAN_POINT('',(100.19999694824,69.849998474121,0.));
#196 = VECTOR('',#197,1.);
#197 = DIRECTION('',(-0.820345789995,-0.571867803638,0.));
#198 = PLANE('',#199);
#199 = AXIS2_PLACEMENT_3D('',#200,#201,#202);
#200 = CARTESIAN_POINT('',(38.123402334905,46.901595376277,0.));
#201 = DIRECTION('',(-0.,-0.,-1.));
#202 = DIRECTION('',(-1.,0.,0.));
#203 = ADVANCED_FACE('',(#204),#214,.T.);
#204 = FACE_BOUND('',#205,.T.);
#205 = EDGE_LOOP('',(#206,#207,#213));
#206 = ORIENTED_EDGE('',*,*,#162,.F.);
#207 = ORIENTED_EDGE('',*,*,#208,.T.);
#208 = EDGE_CURVE('',#108,#186,#209,.T.);
#209 = LINE('',#210,#211);
#210 = CARTESIAN_POINT('',(0.,69.849998474121,9.5));
#211 = VECTOR('',#212,1.);
#212 = DIRECTION('',(0.995535571365,0.,-9.438710794429E-02));
#213 = ORIENTED_EDGE('',*,*,#185,.F.);
#214 = PLANE('',#215);
#215 = AXIS2_PLACEMENT_3D('',#216,#217,#218);
#216 = CARTESIAN_POINT('',(47.837333921599,69.849998474121,
    2.487335447478));
#217 = DIRECTION('',(0.,1.,0.));
#218 = DIRECTION('',(0.,-0.,1.));
#219 = ADVANCED_FACE('',(#220),#237,.T.);
#220 = FACE_BOUND('',#221,.T.);
#221 = EDGE_LOOP('',(#222,#223,#231));
#222 = ORIENTED_EDGE('',*,*,#31,.F.);
#223 = ORIENTED_EDGE('',*,*,#224,.T.);
#224 = EDGE_CURVE('',#24,#225,#227,.T.);
#225 = VERTEX_POINT('',#226);
#226 = CARTESIAN_POINT('',(100.19999694824,7.110000133514,0.));
#227 = LINE('',#228,#229);
#228 = CARTESIAN_POINT('',(95.199996948242,7.110000133514,0.));
#229 = VECTOR('',#230,1.);
#230 = DIRECTION('',(1.,0.,0.));
#231 = ORIENTED_EDGE('',*,*,#232,.T.);
#232 = EDGE_CURVE('',#225,#32,#233,.T.);
#233 = LINE('',#234,#235);
#234 = CARTESIAN_POINT('',(100.19999694824,7.110000133514,0.));
#235 = VECTOR('',#236,1.);
#236 = DIRECTION('',(0.,-1.,0.));
#237 = PLANE('',#238);
#238 = AXIS2_PLACEMENT_3D('',#239,#240,#241);
#239 = CARTESIAN_POINT('',(98.554479179425,4.40948229794,0.));
#240 = DIRECTION('',(-0.,-0.,-1.));
#241 = DIRECTION('',(-1.,0.,0.));
#242 = ADVANCED_FACE('',(#243),#260,.T.);
#243 = FACE_BOUND('',#244,.T.);
#244 = EDGE_LOOP('',(#245,#246,#254));
#245 = ORIENTED_EDGE('',*,*,#232,.F.);
#246 = ORIENTED_EDGE('',*,*,#247,.T.);
#247 = EDGE_CURVE('',#225,#248,#250,.T.);
#248 = VERTEX_POINT('',#249);
#249 = CARTESIAN_POINT('',(100.19999694824,7.110000133514,8.60000038147)
  );
#250 = LINE('',#251,#252);
#251 = CARTESIAN_POINT('',(100.19999694824,7.110000133514,0.));
#252 = VECTOR('',#253,1.);
#253 = DIRECTION('',(0.,0.,1.));
#254 = ORIENTED_EDGE('',*,*,#255,.T.);
#255 = EDGE_CURVE('',#248,#32,#256,.T.);
#256 = LINE('',#257,#258);
#257 = CARTESIAN_POINT('',(100.19999694824,7.110000133514,8.60000038147)
  );
#258 = VECTOR('',#259,1.);
#259 = DIRECTION('',(0.,-0.637182464242,-0.770712986307));
#260 = PLANE('',#261);
#261 = AXIS2_PLACEMENT_3D('',#262,#263,#264);
#262 = CARTESIAN_POINT('',(100.19999694824,4.692875349984,3.162124907509
    ));
#263 = DIRECTION('',(1.,0.,0.));
#264 = DIRECTION('',(-0.,0.,1.));
#265 = ADVANCED_FACE('',(#266),#276,.T.);
#266 = FACE_BOUND('',#267,.T.);
#267 = EDGE_LOOP('',(#268,#269,#275));
#268 = ORIENTED_EDGE('',*,*,#255,.F.);
#269 = ORIENTED_EDGE('',*,*,#270,.T.);
#270 = EDGE_CURVE('',#248,#78,#271,.T.);
#271 = LINE('',#272,#273);
#272 = CARTESIAN_POINT('',(100.19999694824,7.110000133514,8.60000038147)
  );
#273 = VECTOR('',#274,1.);
#274 = DIRECTION('',(0.,-0.992083479613,0.125580131707));
#275 = ORIENTED_EDGE('',*,*,#77,.F.);
#276 = PLANE('',#277);
#277 = AXIS2_PLACEMENT_3D('',#278,#279,#280);
#278 = CARTESIAN_POINT('',(100.19999694824,2.341263669483,5.677059280999
    ));
#279 = DIRECTION('',(1.,0.,0.));
#280 = DIRECTION('',(-0.,0.,1.));
#281 = ADVANCED_FACE('',(#282),#299,.T.);
#282 = FACE_BOUND('',#283,.T.);
#283 = EDGE_LOOP('',(#284,#285,#293));
#284 = ORIENTED_EDGE('',*,*,#270,.F.);
#285 = ORIENTED_EDGE('',*,*,#286,.T.);
#286 = EDGE_CURVE('',#248,#287,#289,.T.);
#287 = VERTEX_POINT('',#288);
#288 = CARTESIAN_POINT('',(100.19999694824,41.709999084473,8.60000038147
    ));
#289 = LINE('',#290,#291);
#290 = CARTESIAN_POINT('',(100.19999694824,7.110000133514,8.60000038147)
  );
#291 = VECTOR('',#292,1.);
#292 = DIRECTION('',(0.,1.,0.));
#293 = ORIENTED_EDGE('',*,*,#294,.T.);
#294 = EDGE_CURVE('',#287,#78,#295,.T.);
#295 = LINE('',#296,#297);
#296 = CARTESIAN_POINT('',(100.19999694824,41.709999084473,8.60000038147
    ));
#297 = VECTOR('',#298,1.);
#298 = DIRECTION('',(0.,-0.999767285913,2.157252926614E-02));
#299 = PLANE('',#300);
#300 = AXIS2_PLACEMENT_3D('',#301,#302,#303);
#301 = CARTESIAN_POINT('',(100.19999694824,20.843242830766,
    8.863502928971));
#302 = DIRECTION('',(1.,0.,0.));
#303 = DIRECTION('',(-0.,0.,1.));
#304 = ADVANCED_FACE('',(#305),#315,.T.);
#305 = FACE_BOUND('',#306,.T.);
#306 = EDGE_LOOP('',(#307,#308,#314));
#307 = ORIENTED_EDGE('',*,*,#193,.F.);
#308 = ORIENTED_EDGE('',*,*,#309,.T.);
#309 = EDGE_CURVE('',#186,#54,#310,.T.);
#310 = LINE('',#311,#312);
#311 = CARTESIAN_POINT('',(100.19999694824,69.849998474121,0.));
#312 = VECTOR('',#313,1.);
#313 = DIRECTION('',(-0.174942893272,-0.98457858198,0.));
#314 = ORIENTED_EDGE('',*,*,#53,.F.);
#315 = PLANE('',#316);
#316 = AXIS2_PLACEMENT_3D('',#317,#318,#319);
#317 = CARTESIAN_POINT('',(54.421839276719,31.523089754635,0.));
#318 = DIRECTION('',(-0.,-0.,-1.));
#319 = DIRECTION('',(-1.,0.,0.));
#320 = ADVANCED_FACE('',(#321),#338,.T.);
#321 = FACE_BOUND('',#322,.T.);
#322 = EDGE_LOOP('',(#323,#331,#337));
#323 = ORIENTED_EDGE('',*,*,#324,.T.);
#324 = EDGE_CURVE('',#186,#325,#327,.T.);
#325 = VERTEX_POINT('',#326);
#326 = CARTESIAN_POINT('',(100.19999694824,41.709999084473,0.));
#327 = LINE('',#328,#329);
#328 = CARTESIAN_POINT('',(100.19999694824,69.849998474121,0.));
#329 = VECTOR('',#330,1.);
#330 = DIRECTION('',(0.,-1.,0.));
#331 = ORIENTED_EDGE('',*,*,#332,.T.);
#332 = EDGE_CURVE('',#325,#54,#333,.T.);
#333 = LINE('',#334,#335);
#334 = CARTESIAN_POINT('',(100.19999694824,41.709999084473,0.));
#335 = VECTOR('',#336,1.);
#336 = DIRECTION('',(-1.,0.,0.));
#337 = ORIENTED_EDGE('',*,*,#309,.F.);
#338 = PLANE('',#339);
#339 = AXIS2_PLACEMENT_3D('',#340,#341,#342);
#340 = CARTESIAN_POINT('',(98.83980800507,54.640187722469,0.));
#341 = DIRECTION('',(-0.,-0.,-1.));
#342 = DIRECTION('',(-1.,0.,0.));
#343 = ADVANCED_FACE('',(#344),#361,.T.);
#344 = FACE_BOUND('',#345,.T.);
#345 = EDGE_LOOP('',(#346,#354,#360));
#346 = ORIENTED_EDGE('',*,*,#347,.T.);
#347 = EDGE_CURVE('',#186,#348,#350,.T.);
#348 = VERTEX_POINT('',#349);
#349 = CARTESIAN_POINT('',(100.19999694824,69.849998474121,9.5));
#350 = LINE('',#351,#352);
#351 = CARTESIAN_POINT('',(100.19999694824,69.849998474121,0.));
#352 = VECTOR('',#353,1.);
#353 = DIRECTION('',(0.,0.,1.));
#354 = ORIENTED_EDGE('',*,*,#355,.T.);
#355 = EDGE_CURVE('',#348,#325,#356,.T.);
#356 = LINE('',#357,#358);
#357 = CARTESIAN_POINT('',(100.19999694824,69.849998474121,9.5));
#358 = VECTOR('',#359,1.);
#359 = DIRECTION('',(0.,-0.947464219125,-0.319861772456));
#360 = ORIENTED_EDGE('',*,*,#324,.F.);
#361 = PLANE('',#362);
#362 = AXIS2_PLACEMENT_3D('',#363,#364,#365);
#363 = CARTESIAN_POINT('',(100.19999694824,57.764916280156,
    2.765082499141));
#364 = DIRECTION('',(1.,0.,0.));
#365 = DIRECTION('',(-0.,0.,1.));
#366 = ADVANCED_FACE('',(#367),#382,.T.);
#367 = FACE_BOUND('',#368,.T.);
#368 = EDGE_LOOP('',(#369,#370,#376));
#369 = ORIENTED_EDGE('',*,*,#146,.F.);
#370 = ORIENTED_EDGE('',*,*,#371,.T.);
#371 = EDGE_CURVE('',#78,#348,#372,.T.);
#372 = LINE('',#373,#374);
#373 = CARTESIAN_POINT('',(100.19999694824,0.,9.5));
#374 = VECTOR('',#375,1.);
#375 = DIRECTION('',(0.,1.,0.));
#376 = ORIENTED_EDGE('',*,*,#377,.T.);
#377 = EDGE_CURVE('',#348,#108,#378,.T.);
#378 = LINE('',#379,#380);
#379 = CARTESIAN_POINT('',(100.19999694824,69.849998474121,9.5));
#380 = VECTOR('',#381,1.);
#381 = DIRECTION('',(-1.,0.,0.));
#382 = PLANE('',#383);
#383 = AXIS2_PLACEMENT_3D('',#384,#385,#386);
#384 = CARTESIAN_POINT('',(62.076594613337,46.901595376277,9.5));
#385 = DIRECTION('',(0.,0.,1.));
#386 = DIRECTION('',(1.,0.,-0.));
#387 = ADVANCED_FACE('',(#388),#393,.T.);
#388 = FACE_BOUND('',#389,.T.);
#389 = EDGE_LOOP('',(#390,#391,#392));
#390 = ORIENTED_EDGE('',*,*,#377,.F.);
#391 = ORIENTED_EDGE('',*,*,#347,.F.);
#392 = ORIENTED_EDGE('',*,*,#208,.F.);
#393 = PLANE('',#394);
#394 = AXIS2_PLACEMENT_3D('',#395,#396,#397);
#395 = CARTESIAN_POINT('',(52.362663026643,69.849998474121,
    7.012664552522));
#396 = DIRECTION('',(0.,1.,0.));
#397 = DIRECTION('',(0.,-0.,1.));
#398 = ADVANCED_FACE('',(#399),#414,.T.);
#399 = FACE_BOUND('',#400,.T.);
#400 = EDGE_LOOP('',(#401,#407,#413));
#401 = ORIENTED_EDGE('',*,*,#402,.T.);
#402 = EDGE_CURVE('',#348,#287,#403,.T.);
#403 = LINE('',#404,#405);
#404 = CARTESIAN_POINT('',(100.19999694824,69.849998474121,9.5));
#405 = VECTOR('',#406,1.);
#406 = DIRECTION('',(0.,-0.999488938152,-3.196658431317E-02));
#407 = ORIENTED_EDGE('',*,*,#408,.T.);
#408 = EDGE_CURVE('',#287,#325,#409,.T.);
#409 = LINE('',#410,#411);
#410 = CARTESIAN_POINT('',(100.19999694824,41.709999084473,8.60000038147
    ));
#411 = VECTOR('',#412,1.);
#412 = DIRECTION('',(0.,0.,-1.));
#413 = ORIENTED_EDGE('',*,*,#355,.F.);
#414 = PLANE('',#415);
#415 = AXIS2_PLACEMENT_3D('',#416,#417,#418);
#416 = CARTESIAN_POINT('',(100.19999694824,53.959179930536,
    6.513514754623));
#417 = DIRECTION('',(1.,0.,0.));
#418 = DIRECTION('',(-0.,0.,1.));
#419 = ADVANCED_FACE('',(#420),#425,.T.);
#420 = FACE_BOUND('',#421,.T.);
#421 = EDGE_LOOP('',(#422,#423,#424));
#422 = ORIENTED_EDGE('',*,*,#294,.F.);
#423 = ORIENTED_EDGE('',*,*,#402,.F.);
#424 = ORIENTED_EDGE('',*,*,#371,.F.);
#425 = PLANE('',#426);
#426 = AXIS2_PLACEMENT_3D('',#427,#428,#429);
#427 = CARTESIAN_POINT('',(100.19999694824,34.926169204522,9.27496129095
    ));
#428 = DIRECTION('',(1.,0.,0.));
#429 = DIRECTION('',(-0.,0.,1.));
#430 = ADVANCED_FACE('',(#431),#441,.T.);
#431 = FACE_BOUND('',#432,.T.);
#432 = EDGE_LOOP('',(#433,#434,#440));
#433 = ORIENTED_EDGE('',*,*,#224,.F.);
#434 = ORIENTED_EDGE('',*,*,#435,.T.);
#435 = EDGE_CURVE('',#24,#248,#436,.T.);
#436 = LINE('',#437,#438);
#437 = CARTESIAN_POINT('',(95.199996948242,7.110000133514,0.));
#438 = VECTOR('',#439,1.);
#439 = DIRECTION('',(0.502620440712,0.,0.864507196372));
#440 = ORIENTED_EDGE('',*,*,#247,.F.);
#441 = PLANE('',#442);
#442 = AXIS2_PLACEMENT_3D('',#443,#444,#445);
#443 = CARTESIAN_POINT('',(98.613030938075,7.110000133514,3.386966200902
    ));
#444 = DIRECTION('',(0.,1.,0.));
#445 = DIRECTION('',(0.,-0.,1.));
#446 = ADVANCED_FACE('',(#447),#464,.T.);
#447 = FACE_BOUND('',#448,.T.);
#448 = EDGE_LOOP('',(#449,#457,#458));
#449 = ORIENTED_EDGE('',*,*,#450,.T.);
#450 = EDGE_CURVE('',#451,#24,#453,.T.);
#451 = VERTEX_POINT('',#452);
#452 = CARTESIAN_POINT('',(95.199996948242,41.709999084473,8.60000038147
    ));
#453 = LINE('',#454,#455);
#454 = CARTESIAN_POINT('',(95.199996948242,41.709999084473,8.60000038147
    ));
#455 = VECTOR('',#456,1.);
#456 = DIRECTION('',(0.,-0.970471578161,-0.241215496978));
#457 = ORIENTED_EDGE('',*,*,#61,.F.);
#458 = ORIENTED_EDGE('',*,*,#459,.T.);
#459 = EDGE_CURVE('',#54,#451,#460,.T.);
#460 = LINE('',#461,#462);
#461 = CARTESIAN_POINT('',(95.199996948242,41.709999084473,0.));
#462 = VECTOR('',#463,1.);
#463 = DIRECTION('',(0.,0.,1.));
#464 = PLANE('',#465);
#465 = AXIS2_PLACEMENT_3D('',#466,#467,#468);
#466 = CARTESIAN_POINT('',(95.199996948242,26.29680720402,2.413192595708
    ));
#467 = DIRECTION('',(1.,0.,0.));
#468 = DIRECTION('',(-0.,0.,1.));
#469 = ADVANCED_FACE('',(#470),#487,.T.);
#470 = FACE_BOUND('',#471,.T.);
#471 = EDGE_LOOP('',(#472,#480,#481));
#472 = ORIENTED_EDGE('',*,*,#473,.T.);
#473 = EDGE_CURVE('',#474,#248,#476,.T.);
#474 = VERTEX_POINT('',#475);
#475 = CARTESIAN_POINT('',(95.199996948242,7.110000133514,8.60000038147)
  );
#476 = LINE('',#477,#478);
#477 = CARTESIAN_POINT('',(95.199996948242,7.110000133514,8.60000038147)
  );
#478 = VECTOR('',#479,1.);
#479 = DIRECTION('',(1.,0.,0.));
#480 = ORIENTED_EDGE('',*,*,#435,.F.);
#481 = ORIENTED_EDGE('',*,*,#482,.T.);
#482 = EDGE_CURVE('',#24,#474,#483,.T.);
#483 = LINE('',#484,#485);
#484 = CARTESIAN_POINT('',(95.199996948242,7.110000133514,0.));
#485 = VECTOR('',#486,1.);
#486 = DIRECTION('',(0.,0.,1.));
#487 = PLANE('',#488);
#488 = AXIS2_PLACEMENT_3D('',#489,#490,#491);
#489 = CARTESIAN_POINT('',(96.78696295841,7.110000133514,5.213034180567)
  );
#490 = DIRECTION('',(0.,1.,0.));
#491 = DIRECTION('',(0.,-0.,1.));
#492 = ADVANCED_FACE('',(#493),#503,.T.);
#493 = FACE_BOUND('',#494,.T.);
#494 = EDGE_LOOP('',(#495,#496,#497));
#495 = ORIENTED_EDGE('',*,*,#482,.F.);
#496 = ORIENTED_EDGE('',*,*,#450,.F.);
#497 = ORIENTED_EDGE('',*,*,#498,.T.);
#498 = EDGE_CURVE('',#451,#474,#499,.T.);
#499 = LINE('',#500,#501);
#500 = CARTESIAN_POINT('',(95.199996948242,41.709999084473,8.60000038147
    ));
#501 = VECTOR('',#502,1.);
#502 = DIRECTION('',(0.,-1.,0.));
#503 = PLANE('',#504);
#504 = AXIS2_PLACEMENT_3D('',#505,#506,#507);
#505 = CARTESIAN_POINT('',(95.199996948242,22.523192013967,
    6.186807785762));
#506 = DIRECTION('',(1.,0.,0.));
#507 = DIRECTION('',(-0.,0.,1.));
#508 = ADVANCED_FACE('',(#509),#519,.T.);
#509 = FACE_BOUND('',#510,.T.);
#510 = EDGE_LOOP('',(#511,#517,#518));
#511 = ORIENTED_EDGE('',*,*,#512,.T.);
#512 = EDGE_CURVE('',#474,#287,#513,.T.);
#513 = LINE('',#514,#515);
#514 = CARTESIAN_POINT('',(95.199996948242,7.110000133514,8.60000038147)
  );
#515 = VECTOR('',#516,1.);
#516 = DIRECTION('',(0.143023033267,0.9897193602,0.));
#517 = ORIENTED_EDGE('',*,*,#286,.F.);
#518 = ORIENTED_EDGE('',*,*,#473,.F.);
#519 = PLANE('',#520);
#520 = AXIS2_PLACEMENT_3D('',#521,#522,#523);
#521 = CARTESIAN_POINT('',(98.86014568823,23.249850869005,8.60000038147)
  );
#522 = DIRECTION('',(-0.,-0.,-1.));
#523 = DIRECTION('',(-1.,0.,0.));
#524 = ADVANCED_FACE('',(#525),#535,.T.);
#525 = FACE_BOUND('',#526,.T.);
#526 = EDGE_LOOP('',(#527,#528,#534));
#527 = ORIENTED_EDGE('',*,*,#498,.F.);
#528 = ORIENTED_EDGE('',*,*,#529,.T.);
#529 = EDGE_CURVE('',#451,#287,#530,.T.);
#530 = LINE('',#531,#532);
#531 = CARTESIAN_POINT('',(95.199996948242,41.709999084473,8.60000038147
    ));
#532 = VECTOR('',#533,1.);
#533 = DIRECTION('',(1.,0.,0.));
#534 = ORIENTED_EDGE('',*,*,#512,.F.);
#535 = PLANE('',#536);
#536 = AXIS2_PLACEMENT_3D('',#537,#538,#539);
#537 = CARTESIAN_POINT('',(96.539848208254,25.570148348982,8.60000038147
    ));
#538 = DIRECTION('',(-0.,-0.,-1.));
#539 = DIRECTION('',(-1.,0.,0.));
#540 = ADVANCED_FACE('',(#541),#551,.T.);
#541 = FACE_BOUND('',#542,.T.);
#542 = EDGE_LOOP('',(#543,#544,#545));
#543 = ORIENTED_EDGE('',*,*,#459,.F.);
#544 = ORIENTED_EDGE('',*,*,#332,.F.);
#545 = ORIENTED_EDGE('',*,*,#546,.T.);
#546 = EDGE_CURVE('',#325,#451,#547,.T.);
#547 = LINE('',#548,#549);
#548 = CARTESIAN_POINT('',(100.19999694824,41.709999084473,0.));
#549 = VECTOR('',#550,1.);
#550 = DIRECTION('',(-0.502620440712,0.,0.864507196372));
#551 = PLANE('',#552);
#552 = AXIS2_PLACEMENT_3D('',#553,#554,#555);
#553 = CARTESIAN_POINT('',(96.78696295841,41.709999084473,3.386966200902
    ));
#554 = DIRECTION('',(-0.,-1.,-0.));
#555 = DIRECTION('',(0.,0.,-1.));
#556 = ADVANCED_FACE('',(#557),#562,.T.);
#557 = FACE_BOUND('',#558,.T.);
#558 = EDGE_LOOP('',(#559,#560,#561));
#559 = ORIENTED_EDGE('',*,*,#546,.F.);
#560 = ORIENTED_EDGE('',*,*,#408,.F.);
#561 = ORIENTED_EDGE('',*,*,#529,.F.);
#562 = PLANE('',#563);
#563 = AXIS2_PLACEMENT_3D('',#564,#565,#566);
#564 = CARTESIAN_POINT('',(98.613030938075,41.709999084473,
    5.213034180567));
#565 = DIRECTION('',(-0.,-1.,-0.));
#566 = DIRECTION('',(0.,0.,-1.));
#567 = ( GEOMETRIC_REPRESENTATION_CONTEXT(3) 
GLOBAL_UNCERTAINTY_ASSIGNED_CONTEXT((#571)) GLOBAL_UNIT_ASSIGNED_CONTEXT
((#568,#569,#570)) REPRESENTATION_CONTEXT('Context #1',
  '3D Context with UNIT and UNCERTAINTY') );
#568 = ( LENGTH_UNIT() NAMED_UNIT(*) SI_UNIT(.MILLI.,.METRE.) );
#569 = ( NAMED_UNIT(*) PLANE_ANGLE_UNIT() SI_UNIT($,.RADIAN.) );
#570 = ( NAMED_UNIT(*) SI_UNIT($,.STERADIAN.) SOLID_ANGLE_UNIT() );
#571 = UNCERTAINTY_MEASURE_WITH_UNIT(LENGTH_MEASURE(1.E-07),#568,
  'distance_accuracy_value','confusion accuracy');
#572 = PRODUCT_RELATED_PRODUCT_CATEGORY('part',$,(#7));
ENDSEC;
END-ISO-10303-21;
