ISO-10303-21;
HEADER;
FILE_DESCRIPTION(('FreeCAD Model'),'2;1');
FILE_NAME('Open CASCADE Shape Model','2026-05-03T15:41:49',('FreeCAD'),(
    'FreeCAD'),'Open CASCADE STEP processor 7.9','FreeCAD','Unknown');
FILE_SCHEMA(('AUTOMOTIVE_DESIGN { 1 0 10303 214 1 1 1 1 }'));
ENDSEC;
DATA;
#1 = APPLICATION_PROTOCOL_DEFINITION('international standard',
  'automotive_design',2000,#2);
#2 = APPLICATION_CONTEXT(
  'core data for automotive mechanical design processes');
#3 = SHAPE_DEFINITION_REPRESENTATION(#4,#10);
#4 = PRODUCT_DEFINITION_SHAPE('','',#5);
#5 = PRODUCT_DEFINITION('design','',#6,#9);
#6 = PRODUCT_DEFINITION_FORMATION('','',#7);
#7 = PRODUCT('Open CASCADE STEP translator 7.9 2',
  'Open CASCADE STEP translator 7.9 2','',(#8));
#8 = PRODUCT_CONTEXT('',#2,'mechanical');
#9 = PRODUCT_DEFINITION_CONTEXT('part definition',#2,'design');
#10 = ADVANCED_BREP_SHAPE_REPRESENTATION('',(#11,#15),#567);
#11 = AXIS2_PLACEMENT_3D('',#12,#13,#14);
#12 = CARTESIAN_POINT('',(0.,0.,0.));
#13 = DIRECTION('',(0.,0.,1.));
#14 = DIRECTION('',(1.,0.,-0.));
#15 = MANIFOLD_SOLID_BREP('',#16);
#16 = CLOSED_SHELL('',(#17,#49,#72,#102,#118,#134,#157,#180,#196,#219,
    #242,#265,#281,#304,#320,#341,#364,#380,#403,#419,#430,#446,#469,
    #492,#508,#524,#540,#556));
#17 = ADVANCED_FACE('',(#18),#44,.T.);
#18 = FACE_BOUND('',#19,.T.);
#19 = EDGE_LOOP('',(#20,#30,#38));
#20 = ORIENTED_EDGE('',*,*,#21,.T.);
#21 = EDGE_CURVE('',#22,#24,#26,.T.);
#22 = VERTEX_POINT('',#23);
#23 = CARTESIAN_POINT('',(0.,0.,0.));
#24 = VERTEX_POINT('',#25);
#25 = CARTESIAN_POINT('',(142.,33.5,0.));
#26 = LINE('',#27,#28);
#27 = CARTESIAN_POINT('',(0.,0.,0.));
#28 = VECTOR('',#29,1.);
#29 = DIRECTION('',(0.973282164909,0.229612341721,0.));
#30 = ORIENTED_EDGE('',*,*,#31,.T.);
#31 = EDGE_CURVE('',#24,#32,#34,.T.);
#32 = VERTEX_POINT('',#33);
#33 = CARTESIAN_POINT('',(147.,0.,0.));
#34 = LINE('',#35,#36);
#35 = CARTESIAN_POINT('',(142.,33.5,0.));
#36 = VECTOR('',#37,1.);
#37 = DIRECTION('',(0.147618562253,-0.989044367093,0.));
#38 = ORIENTED_EDGE('',*,*,#39,.T.);
#39 = EDGE_CURVE('',#32,#22,#40,.T.);
#40 = LINE('',#41,#42);
#41 = CARTESIAN_POINT('',(147.,0.,0.));
#42 = VECTOR('',#43,1.);
#43 = DIRECTION('',(-1.,0.,0.));
#44 = PLANE('',#45);
#45 = AXIS2_PLACEMENT_3D('',#46,#47,#48);
#46 = CARTESIAN_POINT('',(79.743249561047,9.214864186696,0.));
#47 = DIRECTION('',(-0.,-0.,-1.));
#48 = DIRECTION('',(-1.,0.,0.));
#49 = ADVANCED_FACE('',(#50),#67,.T.);
#50 = FACE_BOUND('',#51,.T.);
#51 = EDGE_LOOP('',(#52,#53,#61));
#52 = ORIENTED_EDGE('',*,*,#39,.F.);
#53 = ORIENTED_EDGE('',*,*,#54,.T.);
#54 = EDGE_CURVE('',#32,#55,#57,.T.);
#55 = VERTEX_POINT('',#56);
#56 = CARTESIAN_POINT('',(147.,0.,26.10000038147));
#57 = LINE('',#58,#59);
#58 = CARTESIAN_POINT('',(147.,0.,0.));
#59 = VECTOR('',#60,1.);
#60 = DIRECTION('',(0.,0.,1.));
#61 = ORIENTED_EDGE('',*,*,#62,.F.);
#62 = EDGE_CURVE('',#22,#55,#63,.T.);
#63 = LINE('',#64,#65);
#64 = CARTESIAN_POINT('',(0.,0.,0.));
#65 = VECTOR('',#66,1.);
#66 = DIRECTION('',(0.984600959188,0.,0.174816907554));
#67 = PLANE('',#68);
#68 = AXIS2_PLACEMENT_3D('',#69,#70,#71);
#69 = CARTESIAN_POINT('',(79.450234506759,0.,7.099765683976));
#70 = DIRECTION('',(-0.,-1.,-0.));
#71 = DIRECTION('',(0.,0.,-1.));
#72 = ADVANCED_FACE('',(#73),#97,.T.);
#73 = FACE_BOUND('',#74,.T.);
#74 = EDGE_LOOP('',(#75,#83,#91));
#75 = ORIENTED_EDGE('',*,*,#76,.T.);
#76 = EDGE_CURVE('',#22,#77,#79,.T.);
#77 = VERTEX_POINT('',#78);
#78 = CARTESIAN_POINT('',(0.,0.,26.10000038147));
#79 = LINE('',#80,#81);
#80 = CARTESIAN_POINT('',(0.,0.,0.));
#81 = VECTOR('',#82,1.);
#82 = DIRECTION('',(0.,0.,1.));
#83 = ORIENTED_EDGE('',*,*,#84,.T.);
#84 = EDGE_CURVE('',#77,#85,#87,.T.);
#85 = VERTEX_POINT('',#86);
#86 = CARTESIAN_POINT('',(0.,101.59999847412,26.10000038147));
#87 = LINE('',#88,#89);
#88 = CARTESIAN_POINT('',(0.,0.,26.10000038147));
#89 = VECTOR('',#90,1.);
#90 = DIRECTION('',(0.,1.,0.));
#91 = ORIENTED_EDGE('',*,*,#92,.T.);
#92 = EDGE_CURVE('',#85,#22,#93,.T.);
#93 = LINE('',#94,#95);
#94 = CARTESIAN_POINT('',(0.,101.59999847412,26.10000038147));
#95 = VECTOR('',#96,1.);
#96 = DIRECTION('',(0.,-0.968552028517,-0.248811109187));
#97 = PLANE('',#98);
#98 = AXIS2_PLACEMENT_3D('',#99,#100,#101);
#99 = CARTESIAN_POINT('',(0.,45.099713189205,18.750286238591));
#100 = DIRECTION('',(-1.,-0.,-0.));
#101 = DIRECTION('',(0.,0.,-1.));
#102 = ADVANCED_FACE('',(#103),#113,.T.);
#103 = FACE_BOUND('',#104,.T.);
#104 = EDGE_LOOP('',(#105,#106,#112));
#105 = ORIENTED_EDGE('',*,*,#62,.T.);
#106 = ORIENTED_EDGE('',*,*,#107,.T.);
#107 = EDGE_CURVE('',#55,#77,#108,.T.);
#108 = LINE('',#109,#110);
#109 = CARTESIAN_POINT('',(147.,0.,26.10000038147));
#110 = VECTOR('',#111,1.);
#111 = DIRECTION('',(-1.,0.,0.));
#112 = ORIENTED_EDGE('',*,*,#76,.F.);
#113 = PLANE('',#114);
#114 = AXIS2_PLACEMENT_3D('',#115,#116,#117);
#115 = CARTESIAN_POINT('',(67.549765493241,0.,19.000234697494));
#116 = DIRECTION('',(-0.,-1.,-0.));
#117 = DIRECTION('',(0.,0.,-1.));
#118 = ADVANCED_FACE('',(#119),#129,.T.);
#119 = FACE_BOUND('',#120,.T.);
#120 = EDGE_LOOP('',(#121,#122,#128));
#121 = ORIENTED_EDGE('',*,*,#107,.F.);
#122 = ORIENTED_EDGE('',*,*,#123,.T.);
#123 = EDGE_CURVE('',#55,#85,#124,.T.);
#124 = LINE('',#125,#126);
#125 = CARTESIAN_POINT('',(147.,0.,26.10000038147));
#126 = VECTOR('',#127,1.);
#127 = DIRECTION('',(-0.822635162068,0.568569600074,0.));
#128 = ORIENTED_EDGE('',*,*,#84,.F.);
#129 = PLANE('',#130);
#130 = AXIS2_PLACEMENT_3D('',#131,#132,#133);
#131 = CARTESIAN_POINT('',(56.02351021248,33.32350944954,26.10000038147)
  );
#132 = DIRECTION('',(0.,0.,1.));
#133 = DIRECTION('',(1.,0.,-0.));
#134 = ADVANCED_FACE('',(#135),#152,.T.);
#135 = FACE_BOUND('',#136,.T.);
#136 = EDGE_LOOP('',(#137,#138,#146));
#137 = ORIENTED_EDGE('',*,*,#92,.F.);
#138 = ORIENTED_EDGE('',*,*,#139,.T.);
#139 = EDGE_CURVE('',#85,#140,#142,.T.);
#140 = VERTEX_POINT('',#141);
#141 = CARTESIAN_POINT('',(0.,101.59999847412,0.));
#142 = LINE('',#143,#144);
#143 = CARTESIAN_POINT('',(0.,101.59999847412,26.10000038147));
#144 = VECTOR('',#145,1.);
#145 = DIRECTION('',(0.,0.,-1.));
#146 = ORIENTED_EDGE('',*,*,#147,.T.);
#147 = EDGE_CURVE('',#140,#22,#148,.T.);
#148 = LINE('',#149,#150);
#149 = CARTESIAN_POINT('',(0.,101.59999847412,0.));
#150 = VECTOR('',#151,1.);
#151 = DIRECTION('',(0.,-1.,0.));
#152 = PLANE('',#153);
#153 = AXIS2_PLACEMENT_3D('',#154,#155,#156);
#154 = CARTESIAN_POINT('',(0.,56.500285284916,7.349714142879));
#155 = DIRECTION('',(-1.,-0.,-0.));
#156 = DIRECTION('',(0.,0.,-1.));
#157 = ADVANCED_FACE('',(#158),#175,.T.);
#158 = FACE_BOUND('',#159,.T.);
#159 = EDGE_LOOP('',(#160,#161,#169));
#160 = ORIENTED_EDGE('',*,*,#147,.F.);
#161 = ORIENTED_EDGE('',*,*,#162,.T.);
#162 = EDGE_CURVE('',#140,#163,#165,.T.);
#163 = VERTEX_POINT('',#164);
#164 = CARTESIAN_POINT('',(147.,101.59999847412,0.));
#165 = LINE('',#166,#167);
#166 = CARTESIAN_POINT('',(0.,101.59999847412,0.));
#167 = VECTOR('',#168,1.);
#168 = DIRECTION('',(1.,0.,0.));
#169 = ORIENTED_EDGE('',*,*,#170,.T.);
#170 = EDGE_CURVE('',#163,#22,#171,.T.);
#171 = LINE('',#172,#173);
#172 = CARTESIAN_POINT('',(147.,101.59999847412,0.));
#173 = VECTOR('',#174,1.);
#174 = DIRECTION('',(-0.822635162068,-0.568569600074,0.));
#175 = PLANE('',#176);
#176 = AXIS2_PLACEMENT_3D('',#177,#178,#179);
#177 = CARTESIAN_POINT('',(56.02351021248,68.276489024581,0.));
#178 = DIRECTION('',(-0.,-0.,-1.));
#179 = DIRECTION('',(-1.,0.,0.));
#180 = ADVANCED_FACE('',(#181),#191,.T.);
#181 = FACE_BOUND('',#182,.T.);
#182 = EDGE_LOOP('',(#183,#184,#190));
#183 = ORIENTED_EDGE('',*,*,#139,.F.);
#184 = ORIENTED_EDGE('',*,*,#185,.T.);
#185 = EDGE_CURVE('',#85,#163,#186,.T.);
#186 = LINE('',#187,#188);
#187 = CARTESIAN_POINT('',(0.,101.59999847412,26.10000038147));
#188 = VECTOR('',#189,1.);
#189 = DIRECTION('',(0.984600959188,0.,-0.174816907554));
#190 = ORIENTED_EDGE('',*,*,#162,.F.);
#191 = PLANE('',#192);
#192 = AXIS2_PLACEMENT_3D('',#193,#194,#195);
#193 = CARTESIAN_POINT('',(67.549765493241,101.59999847412,
    7.099765683976));
#194 = DIRECTION('',(0.,1.,0.));
#195 = DIRECTION('',(0.,-0.,1.));
#196 = ADVANCED_FACE('',(#197),#214,.T.);
#197 = FACE_BOUND('',#198,.T.);
#198 = EDGE_LOOP('',(#199,#207,#213));
#199 = ORIENTED_EDGE('',*,*,#200,.T.);
#200 = EDGE_CURVE('',#22,#201,#203,.T.);
#201 = VERTEX_POINT('',#202);
#202 = CARTESIAN_POINT('',(142.,68.099998474121,0.));
#203 = LINE('',#204,#205);
#204 = CARTESIAN_POINT('',(0.,0.,0.));
#205 = VECTOR('',#206,1.);
#206 = DIRECTION('',(0.901671637984,0.432421388527,0.));
#207 = ORIENTED_EDGE('',*,*,#208,.T.);
#208 = EDGE_CURVE('',#201,#24,#209,.T.);
#209 = LINE('',#210,#211);
#210 = CARTESIAN_POINT('',(142.,68.099998474121,0.));
#211 = VECTOR('',#212,1.);
#212 = DIRECTION('',(0.,-1.,0.));
#213 = ORIENTED_EDGE('',*,*,#21,.F.);
#214 = PLANE('',#215);
#215 = AXIS2_PLACEMENT_3D('',#216,#217,#218);
#216 = CARTESIAN_POINT('',(78.268405107604,28.296796525499,0.));
#217 = DIRECTION('',(-0.,-0.,-1.));
#218 = DIRECTION('',(-1.,0.,0.));
#219 = ADVANCED_FACE('',(#220),#237,.T.);
#220 = FACE_BOUND('',#221,.T.);
#221 = EDGE_LOOP('',(#222,#223,#231));
#222 = ORIENTED_EDGE('',*,*,#31,.F.);
#223 = ORIENTED_EDGE('',*,*,#224,.T.);
#224 = EDGE_CURVE('',#24,#225,#227,.T.);
#225 = VERTEX_POINT('',#226);
#226 = CARTESIAN_POINT('',(147.,33.5,0.));
#227 = LINE('',#228,#229);
#228 = CARTESIAN_POINT('',(142.,33.5,0.));
#229 = VECTOR('',#230,1.);
#230 = DIRECTION('',(1.,0.,0.));
#231 = ORIENTED_EDGE('',*,*,#232,.T.);
#232 = EDGE_CURVE('',#225,#32,#233,.T.);
#233 = LINE('',#234,#235);
#234 = CARTESIAN_POINT('',(147.,33.5,0.));
#235 = VECTOR('',#236,1.);
#236 = DIRECTION('',(0.,-1.,0.));
#237 = PLANE('',#238);
#238 = AXIS2_PLACEMENT_3D('',#239,#240,#241);
#239 = CARTESIAN_POINT('',(145.65723022278,17.90723022278,0.));
#240 = DIRECTION('',(-0.,-0.,-1.));
#241 = DIRECTION('',(-1.,0.,0.));
#242 = ADVANCED_FACE('',(#243),#260,.T.);
#243 = FACE_BOUND('',#244,.T.);
#244 = EDGE_LOOP('',(#245,#246,#254));
#245 = ORIENTED_EDGE('',*,*,#232,.F.);
#246 = ORIENTED_EDGE('',*,*,#247,.T.);
#247 = EDGE_CURVE('',#225,#248,#250,.T.);
#248 = VERTEX_POINT('',#249);
#249 = CARTESIAN_POINT('',(147.,33.5,8.60000038147));
#250 = LINE('',#251,#252);
#251 = CARTESIAN_POINT('',(147.,33.5,0.));
#252 = VECTOR('',#253,1.);
#253 = DIRECTION('',(0.,0.,1.));
#254 = ORIENTED_EDGE('',*,*,#255,.T.);
#255 = EDGE_CURVE('',#248,#32,#256,.T.);
#256 = LINE('',#257,#258);
#257 = CARTESIAN_POINT('',(147.,33.5,8.60000038147));
#258 = VECTOR('',#259,1.);
#259 = DIRECTION('',(0.,-0.968592476827,-0.248653602095));
#260 = PLANE('',#261);
#261 = AXIS2_PLACEMENT_3D('',#262,#263,#264);
#262 = CARTESIAN_POINT('',(147.,18.628432833727,2.421567357008));
#263 = DIRECTION('',(1.,0.,0.));
#264 = DIRECTION('',(-0.,0.,1.));
#265 = ADVANCED_FACE('',(#266),#276,.T.);
#266 = FACE_BOUND('',#267,.T.);
#267 = EDGE_LOOP('',(#268,#269,#275));
#268 = ORIENTED_EDGE('',*,*,#255,.F.);
#269 = ORIENTED_EDGE('',*,*,#270,.T.);
#270 = EDGE_CURVE('',#248,#55,#271,.T.);
#271 = LINE('',#272,#273);
#272 = CARTESIAN_POINT('',(147.,33.5,8.60000038147));
#273 = VECTOR('',#274,1.);
#274 = DIRECTION('',(0.,-0.886348848205,0.463018055032));
#275 = ORIENTED_EDGE('',*,*,#54,.F.);
#276 = PLANE('',#277);
#277 = AXIS2_PLACEMENT_3D('',#278,#279,#280);
#278 = CARTESIAN_POINT('',(147.,12.310853563328,11.627308618944));
#279 = DIRECTION('',(1.,0.,0.));
#280 = DIRECTION('',(-0.,0.,1.));
#281 = ADVANCED_FACE('',(#282),#299,.T.);
#282 = FACE_BOUND('',#283,.T.);
#283 = EDGE_LOOP('',(#284,#285,#293));
#284 = ORIENTED_EDGE('',*,*,#270,.F.);
#285 = ORIENTED_EDGE('',*,*,#286,.T.);
#286 = EDGE_CURVE('',#248,#287,#289,.T.);
#287 = VERTEX_POINT('',#288);
#288 = CARTESIAN_POINT('',(147.,68.099998474121,8.60000038147));
#289 = LINE('',#290,#291);
#290 = CARTESIAN_POINT('',(147.,33.5,8.60000038147));
#291 = VECTOR('',#292,1.);
#292 = DIRECTION('',(0.,1.,0.));
#293 = ORIENTED_EDGE('',*,*,#294,.T.);
#294 = EDGE_CURVE('',#287,#55,#295,.T.);
#295 = LINE('',#296,#297);
#296 = CARTESIAN_POINT('',(147.,68.099998474121,8.60000038147));
#297 = VECTOR('',#298,1.);
#298 = DIRECTION('',(0.,-0.968532122879,0.248888583409));
#299 = PLANE('',#300);
#300 = AXIS2_PLACEMENT_3D('',#301,#302,#303);
#301 = CARTESIAN_POINT('',(147.,33.529270599013,15.228536961346));
#302 = DIRECTION('',(1.,0.,0.));
#303 = DIRECTION('',(-0.,0.,1.));
#304 = ADVANCED_FACE('',(#305),#315,.T.);
#305 = FACE_BOUND('',#306,.T.);
#306 = EDGE_LOOP('',(#307,#308,#314));
#307 = ORIENTED_EDGE('',*,*,#170,.F.);
#308 = ORIENTED_EDGE('',*,*,#309,.T.);
#309 = EDGE_CURVE('',#163,#201,#310,.T.);
#310 = LINE('',#311,#312);
#311 = CARTESIAN_POINT('',(147.,101.59999847412,0.));
#312 = VECTOR('',#313,1.);
#313 = DIRECTION('',(-0.147618562253,-0.989044367093,0.));
#314 = ORIENTED_EDGE('',*,*,#200,.F.);
#315 = PLANE('',#316);
#316 = AXIS2_PLACEMENT_3D('',#317,#318,#319);
#317 = CARTESIAN_POINT('',(78.934755688836,46.788199541973,0.));
#318 = DIRECTION('',(-0.,-0.,-1.));
#319 = DIRECTION('',(-1.,0.,0.));
#320 = ADVANCED_FACE('',(#321),#336,.T.);
#321 = FACE_BOUND('',#322,.T.);
#322 = EDGE_LOOP('',(#323,#324,#330));
#323 = ORIENTED_EDGE('',*,*,#294,.F.);
#324 = ORIENTED_EDGE('',*,*,#325,.T.);
#325 = EDGE_CURVE('',#287,#163,#326,.T.);
#326 = LINE('',#327,#328);
#327 = CARTESIAN_POINT('',(147.,68.099998474121,8.60000038147));
#328 = VECTOR('',#329,1.);
#329 = DIRECTION('',(0.,0.968592476827,-0.248653602095));
#330 = ORIENTED_EDGE('',*,*,#331,.T.);
#331 = EDGE_CURVE('',#163,#55,#332,.T.);
#332 = LINE('',#333,#334);
#333 = CARTESIAN_POINT('',(147.,101.59999847412,0.));
#334 = VECTOR('',#335,1.);
#335 = DIRECTION('',(0.,-0.968552028517,0.248811109187));
#336 = PLANE('',#337);
#337 = AXIS2_PLACEMENT_3D('',#338,#339,#340);
#338 = CARTESIAN_POINT('',(147.,50.799649443565,13.048638309059));
#339 = DIRECTION('',(1.,0.,0.));
#340 = DIRECTION('',(-0.,0.,1.));
#341 = ADVANCED_FACE('',(#342),#359,.T.);
#342 = FACE_BOUND('',#343,.T.);
#343 = EDGE_LOOP('',(#344,#352,#358));
#344 = ORIENTED_EDGE('',*,*,#345,.T.);
#345 = EDGE_CURVE('',#163,#346,#348,.T.);
#346 = VERTEX_POINT('',#347);
#347 = CARTESIAN_POINT('',(147.,68.099998474121,0.));
#348 = LINE('',#349,#350);
#349 = CARTESIAN_POINT('',(147.,101.59999847412,0.));
#350 = VECTOR('',#351,1.);
#351 = DIRECTION('',(0.,-1.,0.));
#352 = ORIENTED_EDGE('',*,*,#353,.T.);
#353 = EDGE_CURVE('',#346,#201,#354,.T.);
#354 = LINE('',#355,#356);
#355 = CARTESIAN_POINT('',(147.,68.099998474121,0.));
#356 = VECTOR('',#357,1.);
#357 = DIRECTION('',(-1.,0.,0.));
#358 = ORIENTED_EDGE('',*,*,#309,.F.);
#359 = PLANE('',#360);
#360 = AXIS2_PLACEMENT_3D('',#361,#362,#363);
#361 = CARTESIAN_POINT('',(145.65723022278,83.692768251341,0.));
#362 = DIRECTION('',(-0.,-0.,-1.));
#363 = DIRECTION('',(-1.,0.,0.));
#364 = ADVANCED_FACE('',(#365),#375,.T.);
#365 = FACE_BOUND('',#366,.T.);
#366 = EDGE_LOOP('',(#367,#368,#374));
#367 = ORIENTED_EDGE('',*,*,#325,.F.);
#368 = ORIENTED_EDGE('',*,*,#369,.T.);
#369 = EDGE_CURVE('',#287,#346,#370,.T.);
#370 = LINE('',#371,#372);
#371 = CARTESIAN_POINT('',(147.,68.099998474121,8.60000038147));
#372 = VECTOR('',#373,1.);
#373 = DIRECTION('',(0.,0.,-1.));
#374 = ORIENTED_EDGE('',*,*,#345,.F.);
#375 = PLANE('',#376);
#376 = AXIS2_PLACEMENT_3D('',#377,#378,#379);
#377 = CARTESIAN_POINT('',(147.,82.971565640395,2.421567357008));
#378 = DIRECTION('',(1.,0.,0.));
#379 = DIRECTION('',(-0.,0.,1.));
#380 = ADVANCED_FACE('',(#381),#398,.T.);
#381 = FACE_BOUND('',#382,.T.);
#382 = EDGE_LOOP('',(#383,#384,#392));
#383 = ORIENTED_EDGE('',*,*,#123,.F.);
#384 = ORIENTED_EDGE('',*,*,#385,.T.);
#385 = EDGE_CURVE('',#55,#386,#388,.T.);
#386 = VERTEX_POINT('',#387);
#387 = CARTESIAN_POINT('',(147.,101.59999847412,26.10000038147));
#388 = LINE('',#389,#390);
#389 = CARTESIAN_POINT('',(147.,0.,26.10000038147));
#390 = VECTOR('',#391,1.);
#391 = DIRECTION('',(0.,1.,0.));
#392 = ORIENTED_EDGE('',*,*,#393,.T.);
#393 = EDGE_CURVE('',#386,#85,#394,.T.);
#394 = LINE('',#395,#396);
#395 = CARTESIAN_POINT('',(147.,101.59999847412,26.10000038147));
#396 = VECTOR('',#397,1.);
#397 = DIRECTION('',(-1.,0.,0.));
#398 = PLANE('',#399);
#399 = AXIS2_PLACEMENT_3D('',#400,#401,#402);
#400 = CARTESIAN_POINT('',(90.97648978752,68.276489024581,26.10000038147
    ));
#401 = DIRECTION('',(0.,0.,1.));
#402 = DIRECTION('',(1.,0.,-0.));
#403 = ADVANCED_FACE('',(#404),#414,.T.);
#404 = FACE_BOUND('',#405,.T.);
#405 = EDGE_LOOP('',(#406,#407,#413));
#406 = ORIENTED_EDGE('',*,*,#393,.F.);
#407 = ORIENTED_EDGE('',*,*,#408,.T.);
#408 = EDGE_CURVE('',#386,#163,#409,.T.);
#409 = LINE('',#410,#411);
#410 = CARTESIAN_POINT('',(147.,101.59999847412,26.10000038147));
#411 = VECTOR('',#412,1.);
#412 = DIRECTION('',(0.,0.,-1.));
#413 = ORIENTED_EDGE('',*,*,#185,.F.);
#414 = PLANE('',#415);
#415 = AXIS2_PLACEMENT_3D('',#416,#417,#418);
#416 = CARTESIAN_POINT('',(79.450234506759,101.59999847412,
    19.000234697494));
#417 = DIRECTION('',(0.,1.,0.));
#418 = DIRECTION('',(0.,-0.,1.));
#419 = ADVANCED_FACE('',(#420),#425,.T.);
#420 = FACE_BOUND('',#421,.T.);
#421 = EDGE_LOOP('',(#422,#423,#424));
#422 = ORIENTED_EDGE('',*,*,#331,.F.);
#423 = ORIENTED_EDGE('',*,*,#408,.F.);
#424 = ORIENTED_EDGE('',*,*,#385,.F.);
#425 = PLANE('',#426);
#426 = AXIS2_PLACEMENT_3D('',#427,#428,#429);
#427 = CARTESIAN_POINT('',(147.,56.500285284916,18.750286238591));
#428 = DIRECTION('',(1.,0.,0.));
#429 = DIRECTION('',(-0.,0.,1.));
#430 = ADVANCED_FACE('',(#431),#441,.T.);
#431 = FACE_BOUND('',#432,.T.);
#432 = EDGE_LOOP('',(#433,#434,#440));
#433 = ORIENTED_EDGE('',*,*,#224,.F.);
#434 = ORIENTED_EDGE('',*,*,#435,.T.);
#435 = EDGE_CURVE('',#24,#248,#436,.T.);
#436 = LINE('',#437,#438);
#437 = CARTESIAN_POINT('',(142.,33.5,0.));
#438 = VECTOR('',#439,1.);
#439 = DIRECTION('',(0.502620440712,0.,0.864507196372));
#440 = ORIENTED_EDGE('',*,*,#247,.F.);
#441 = PLANE('',#442);
#442 = AXIS2_PLACEMENT_3D('',#443,#444,#445);
#443 = CARTESIAN_POINT('',(145.41303398983,33.5,3.386966200902));
#444 = DIRECTION('',(0.,1.,0.));
#445 = DIRECTION('',(0.,-0.,1.));
#446 = ADVANCED_FACE('',(#447),#464,.T.);
#447 = FACE_BOUND('',#448,.T.);
#448 = EDGE_LOOP('',(#449,#457,#458));
#449 = ORIENTED_EDGE('',*,*,#450,.T.);
#450 = EDGE_CURVE('',#451,#248,#453,.T.);
#451 = VERTEX_POINT('',#452);
#452 = CARTESIAN_POINT('',(142.,33.5,8.60000038147));
#453 = LINE('',#454,#455);
#454 = CARTESIAN_POINT('',(142.,33.5,8.60000038147));
#455 = VECTOR('',#456,1.);
#456 = DIRECTION('',(1.,0.,0.));
#457 = ORIENTED_EDGE('',*,*,#435,.F.);
#458 = ORIENTED_EDGE('',*,*,#459,.T.);
#459 = EDGE_CURVE('',#24,#451,#460,.T.);
#460 = LINE('',#461,#462);
#461 = CARTESIAN_POINT('',(142.,33.5,0.));
#462 = VECTOR('',#463,1.);
#463 = DIRECTION('',(0.,0.,1.));
#464 = PLANE('',#465);
#465 = AXIS2_PLACEMENT_3D('',#466,#467,#468);
#466 = CARTESIAN_POINT('',(143.58696601016,33.5,5.213034180567));
#467 = DIRECTION('',(0.,1.,0.));
#468 = DIRECTION('',(0.,-0.,1.));
#469 = ADVANCED_FACE('',(#470),#487,.T.);
#470 = FACE_BOUND('',#471,.T.);
#471 = EDGE_LOOP('',(#472,#473,#481));
#472 = ORIENTED_EDGE('',*,*,#459,.F.);
#473 = ORIENTED_EDGE('',*,*,#474,.T.);
#474 = EDGE_CURVE('',#24,#475,#477,.T.);
#475 = VERTEX_POINT('',#476);
#476 = CARTESIAN_POINT('',(142.,68.099998474121,8.60000038147));
#477 = LINE('',#478,#479);
#478 = CARTESIAN_POINT('',(142.,33.5,0.));
#479 = VECTOR('',#480,1.);
#480 = DIRECTION('',(0.,0.970471577383,0.241215500109));
#481 = ORIENTED_EDGE('',*,*,#482,.T.);
#482 = EDGE_CURVE('',#475,#451,#483,.T.);
#483 = LINE('',#484,#485);
#484 = CARTESIAN_POINT('',(142.,68.099998474121,8.60000038147));
#485 = VECTOR('',#486,1.);
#486 = DIRECTION('',(0.,-1.,0.));
#487 = PLANE('',#488);
#488 = AXIS2_PLACEMENT_3D('',#489,#490,#491);
#489 = CARTESIAN_POINT('',(142.,48.913191645554,6.186807782242));
#490 = DIRECTION('',(1.,0.,0.));
#491 = DIRECTION('',(-0.,0.,1.));
#492 = ADVANCED_FACE('',(#493),#503,.T.);
#493 = FACE_BOUND('',#494,.T.);
#494 = EDGE_LOOP('',(#495,#501,#502));
#495 = ORIENTED_EDGE('',*,*,#496,.T.);
#496 = EDGE_CURVE('',#451,#287,#497,.T.);
#497 = LINE('',#498,#499);
#498 = CARTESIAN_POINT('',(142.,33.5,8.60000038147));
#499 = VECTOR('',#500,1.);
#500 = DIRECTION('',(0.143023035198,0.989719359921,0.));
#501 = ORIENTED_EDGE('',*,*,#286,.F.);
#502 = ORIENTED_EDGE('',*,*,#450,.F.);
#503 = PLANE('',#504);
#504 = AXIS2_PLACEMENT_3D('',#505,#506,#507);
#505 = CARTESIAN_POINT('',(145.66014873876,49.639850498298,8.60000038147
    ));
#506 = DIRECTION('',(-0.,-0.,-1.));
#507 = DIRECTION('',(-1.,0.,0.));
#508 = ADVANCED_FACE('',(#509),#519,.T.);
#509 = FACE_BOUND('',#510,.T.);
#510 = EDGE_LOOP('',(#511,#512,#513));
#511 = ORIENTED_EDGE('',*,*,#474,.F.);
#512 = ORIENTED_EDGE('',*,*,#208,.F.);
#513 = ORIENTED_EDGE('',*,*,#514,.T.);
#514 = EDGE_CURVE('',#201,#475,#515,.T.);
#515 = LINE('',#516,#517);
#516 = CARTESIAN_POINT('',(142.,68.099998474121,0.));
#517 = VECTOR('',#518,1.);
#518 = DIRECTION('',(0.,0.,1.));
#519 = PLANE('',#520);
#520 = AXIS2_PLACEMENT_3D('',#521,#522,#523);
#521 = CARTESIAN_POINT('',(142.,52.686806828567,2.413192599228));
#522 = DIRECTION('',(1.,0.,0.));
#523 = DIRECTION('',(-0.,0.,1.));
#524 = ADVANCED_FACE('',(#525),#535,.T.);
#525 = FACE_BOUND('',#526,.T.);
#526 = EDGE_LOOP('',(#527,#528,#529));
#527 = ORIENTED_EDGE('',*,*,#514,.F.);
#528 = ORIENTED_EDGE('',*,*,#353,.F.);
#529 = ORIENTED_EDGE('',*,*,#530,.T.);
#530 = EDGE_CURVE('',#346,#475,#531,.T.);
#531 = LINE('',#532,#533);
#532 = CARTESIAN_POINT('',(147.,68.099998474121,0.));
#533 = VECTOR('',#534,1.);
#534 = DIRECTION('',(-0.502620440712,0.,0.864507196372));
#535 = PLANE('',#536);
#536 = AXIS2_PLACEMENT_3D('',#537,#538,#539);
#537 = CARTESIAN_POINT('',(143.58696601016,68.099998474121,
    3.386966200902));
#538 = DIRECTION('',(-0.,-1.,-0.));
#539 = DIRECTION('',(0.,0.,-1.));
#540 = ADVANCED_FACE('',(#541),#551,.T.);
#541 = FACE_BOUND('',#542,.T.);
#542 = EDGE_LOOP('',(#543,#544,#545));
#543 = ORIENTED_EDGE('',*,*,#530,.F.);
#544 = ORIENTED_EDGE('',*,*,#369,.F.);
#545 = ORIENTED_EDGE('',*,*,#546,.T.);
#546 = EDGE_CURVE('',#287,#475,#547,.T.);
#547 = LINE('',#548,#549);
#548 = CARTESIAN_POINT('',(147.,68.099998474121,8.60000038147));
#549 = VECTOR('',#550,1.);
#550 = DIRECTION('',(-1.,0.,0.));
#551 = PLANE('',#552);
#552 = AXIS2_PLACEMENT_3D('',#553,#554,#555);
#553 = CARTESIAN_POINT('',(145.41303398983,68.099998474121,
    5.213034180567));
#554 = DIRECTION('',(-0.,-1.,-0.));
#555 = DIRECTION('',(0.,0.,-1.));
#556 = ADVANCED_FACE('',(#557),#562,.T.);
#557 = FACE_BOUND('',#558,.T.);
#558 = EDGE_LOOP('',(#559,#560,#561));
#559 = ORIENTED_EDGE('',*,*,#482,.F.);
#560 = ORIENTED_EDGE('',*,*,#546,.F.);
#561 = ORIENTED_EDGE('',*,*,#496,.F.);
#562 = PLANE('',#563);
#563 = AXIS2_PLACEMENT_3D('',#564,#565,#566);
#564 = CARTESIAN_POINT('',(143.33985126123,51.960147975823,8.60000038147
    ));
#565 = DIRECTION('',(-0.,-0.,-1.));
#566 = DIRECTION('',(-1.,0.,0.));
#567 = ( GEOMETRIC_REPRESENTATION_CONTEXT(3) 
GLOBAL_UNCERTAINTY_ASSIGNED_CONTEXT((#571)) GLOBAL_UNIT_ASSIGNED_CONTEXT
((#568,#569,#570)) REPRESENTATION_CONTEXT('Context #1',
  '3D Context with UNIT and UNCERTAINTY') );
#568 = ( LENGTH_UNIT() NAMED_UNIT(*) SI_UNIT(.MILLI.,.METRE.) );
#569 = ( NAMED_UNIT(*) PLANE_ANGLE_UNIT() SI_UNIT($,.RADIAN.) );
#570 = ( NAMED_UNIT(*) SI_UNIT($,.STERADIAN.) SOLID_ANGLE_UNIT() );
#571 = UNCERTAINTY_MEASURE_WITH_UNIT(LENGTH_MEASURE(1.E-07),#568,
  'distance_accuracy_value','confusion accuracy');
#572 = PRODUCT_RELATED_PRODUCT_CATEGORY('part',$,(#7));
ENDSEC;
END-ISO-10303-21;
