999
DXF from OpenSCAD
  0
SECTION
  2
HEADER
  9
$ACADVER
  1
AC1006
  9
$INSBASE
 10
0.0
 20
0.0
 30
0.0
  9
$EXTMIN
 10
0
 20
0
  9
$EXTMAX
 10
165
 20
53.6
  9
$LINMIN
 10
0
 20
0
  9
$LINMAX
 10
165
 20
53.6
  0
ENDSEC
  0
SECTION
  2
TABLES
  0
TABLE
  2
LTYPE
 70
1
  0
LTYPE
  2
CONTINUOUS
 70
64
  3
Solid line
 72
65
 73
0
 40
0.000000
  0
ENDTAB
  0
TABLE
  2
LAYER
 70
6
  0
LAYER
  2
0
 70
64
 62
7
  6
CONTINUOUS
  0
ENDTAB
  0
TABLE
  2
STYLE
 70
0
  0
ENDTAB
  0
ENDSEC
  0
SECTION
  2
BLOCKS
  0
ENDSEC
  0
SECTION
  2
ENTITIES
  0
LWPOLYLINE
100
AcDbEntity
  8
0
100
AcDbPolyline
 90
20
 70
1
 10
162.891
 20
0.451303
 10
164.303
 20
1.70182
 10
164.971
 20
3.46509
 10
165
 20
3.94
 10
165
 20
49.66
 10
164.549
 20
51.491
 10
163.298
 20
52.9026
 10
161.535
 20
53.5713
 10
161.06
 20
53.6
 10
3.94
 20
53.6
 10
2.10899
 20
53.1487
 10
0.697444
 20
51.8982
 10
0.028727
 20
50.1349
 10
0
 20
49.66
 10
0
 20
3.94
 10
0.451303
 20
2.10899
 10
1.70182
 20
0.697444
 10
3.46509
 20
0.028727
 10
3.94
 20
0
 10
161.06
 20
0
  0
LWPOLYLINE
100
AcDbEntity
  8
0
100
AcDbPolyline
 90
24
 70
1
 10
3.54707
 20
47.9096
 10
3.125
 20
48.0845
 10
2.76256
 20
48.3626
 10
2.48446
 20
48.725
 10
2.30963
 20
49.1471
 10
2.25
 20
49.6
 10
2.30963
 20
50.0529
 10
2.48446
 20
50.475
 10
2.76256
 20
50.8374
 10
3.125
 20
51.1155
 10
3.54707
 20
51.2904
 10
4
 20
51.35
 10
4.45293
 20
51.2904
 10
4.875
 20
51.1155
 10
5.23744
 20
50.8374
 10
5.51554
 20
50.475
 10
5.69037
 20
50.0529
 10
5.75
 20
49.6
 10
5.69037
 20
49.1471
 10
5.51554
 20
48.725
 10
5.23744
 20
48.3626
 10
4.875
 20
48.0845
 10
4.45293
 20
47.9096
 10
4
 20
47.85
  0
LWPOLYLINE
100
AcDbEntity
  8
0
100
AcDbPolyline
 90
24
 70
1
 10
160.547
 20
47.9096
 10
160.125
 20
48.0845
 10
159.763
 20
48.3626
 10
159.484
 20
48.725
 10
159.31
 20
49.1471
 10
159.25
 20
49.6
 10
159.31
 20
50.0529
 10
159.484
 20
50.475
 10
159.763
 20
50.8374
 10
160.125
 20
51.1155
 10
160.547
 20
51.2904
 10
161
 20
51.35
 10
161.453
 20
51.2904
 10
161.875
 20
51.1155
 10
162.237
 20
50.8374
 10
162.516
 20
50.475
 10
162.69
 20
50.0529
 10
162.75
 20
49.6
 10
162.69
 20
49.1471
 10
162.516
 20
48.725
 10
162.237
 20
48.3626
 10
161.875
 20
48.0845
 10
161.453
 20
47.9096
 10
161
 20
47.85
  0
LWPOLYLINE
100
AcDbEntity
  8
0
100
AcDbPolyline
 90
4
 70
1
 10
74.4
 20
6.6
 10
74.4
 20
20.2
 10
91.1
 20
20.2
 10
91.1
 20
6.6
  0
LWPOLYLINE
100
AcDbEntity
  8
0
100
AcDbPolyline
 90
4
 70
1
 10
45
 20
6.6
 10
45
 20
16.1
 10
54.5
 20
16.1
 10
54.5
 20
6.6
  0
LWPOLYLINE
100
AcDbEntity
  8
0
100
AcDbPolyline
 90
4
 70
1
 10
114
 20
6.6
 10
114
 20
10.3
 10
123.5
 20
10.3
 10
123.5
 20
6.6
  0
LWPOLYLINE
100
AcDbEntity
  8
0
100
AcDbPolyline
 90
32
 70
1
 10
96.4086
 20
6.38363
 10
96.0803
 20
6.48321
 10
95.7778
 20
6.64493
 10
95.5126
 20
6.86256
 10
95.2949
 20
7.12775
 10
95.1332
 20
7.4303
 10
95.0336
 20
7.75859
 10
95
 20
8.1
 10
95.0336
 20
8.44141
 10
95.1332
 20
8.7697
 10
95.2949
 20
9.07225
 10
95.5126
 20
9.33744
 10
95.7778
 20
9.55507
 10
96.0803
 20
9.71679
 10
96.4086
 20
9.81637
 10
96.75
 20
9.85
 10
97.0914
 20
9.81637
 10
97.4197
 20
9.71679
 10
97.7222
 20
9.55507
 10
97.9874
 20
9.33744
 10
98.2051
 20
9.07225
 10
98.3668
 20
8.7697
 10
98.4664
 20
8.44141
 10
98.5
 20
8.1
 10
98.4664
 20
7.75859
 10
98.3668
 20
7.4303
 10
98.2051
 20
7.12775
 10
97.9874
 20
6.86256
 10
97.7222
 20
6.64493
 10
97.4197
 20
6.48321
 10
97.0914
 20
6.38363
 10
96.75
 20
6.35
  0
LWPOLYLINE
100
AcDbEntity
  8
0
100
AcDbPolyline
 90
32
 70
1
 10
105.409
 20
6.38363
 10
105.08
 20
6.48321
 10
104.778
 20
6.64493
 10
104.513
 20
6.86256
 10
104.295
 20
7.12775
 10
104.133
 20
7.4303
 10
104.034
 20
7.75859
 10
104
 20
8.1
 10
104.034
 20
8.44141
 10
104.133
 20
8.7697
 10
104.295
 20
9.07225
 10
104.513
 20
9.33744
 10
104.778
 20
9.55507
 10
105.08
 20
9.71679
 10
105.409
 20
9.81637
 10
105.75
 20
9.85
 10
106.091
 20
9.81637
 10
106.42
 20
9.71679
 10
106.722
 20
9.55507
 10
106.987
 20
9.33744
 10
107.205
 20
9.07225
 10
107.367
 20
8.7697
 10
107.466
 20
8.44141
 10
107.5
 20
8.1
 10
107.466
 20
7.75859
 10
107.367
 20
7.4303
 10
107.205
 20
7.12775
 10
106.987
 20
6.86256
 10
106.722
 20
6.64493
 10
106.42
 20
6.48321
 10
106.091
 20
6.38363
 10
105.75
 20
6.35
  0
LWPOLYLINE
100
AcDbEntity
  8
0
100
AcDbPolyline
 90
24
 70
1
 10
3.54707
 20
2.30963
 10
3.125
 20
2.48446
 10
2.76256
 20
2.76256
 10
2.48446
 20
3.125
 10
2.30963
 20
3.54707
 10
2.25
 20
4
 10
2.30963
 20
4.45293
 10
2.48446
 20
4.875
 10
2.76256
 20
5.23744
 10
3.125
 20
5.51554
 10
3.54707
 20
5.69037
 10
4
 20
5.75
 10
4.45293
 20
5.69037
 10
4.875
 20
5.51554
 10
5.23744
 20
5.23744
 10
5.51554
 20
4.875
 10
5.69037
 20
4.45293
 10
5.75
 20
4
 10
5.69037
 20
3.54707
 10
5.51554
 20
3.125
 10
5.23744
 20
2.76256
 10
4.875
 20
2.48446
 10
4.45293
 20
2.30963
 10
4
 20
2.25
  0
LWPOLYLINE
100
AcDbEntity
  8
0
100
AcDbPolyline
 90
24
 70
1
 10
160.547
 20
2.30963
 10
160.125
 20
2.48446
 10
159.763
 20
2.76256
 10
159.484
 20
3.125
 10
159.31
 20
3.54707
 10
159.25
 20
4
 10
159.31
 20
4.45293
 10
159.484
 20
4.875
 10
159.763
 20
5.23744
 10
160.125
 20
5.51554
 10
160.547
 20
5.69037
 10
161
 20
5.75
 10
161.453
 20
5.69037
 10
161.875
 20
5.51554
 10
162.237
 20
5.23744
 10
162.516
 20
4.875
 10
162.69
 20
4.45293
 10
162.75
 20
4
 10
162.69
 20
3.54707
 10
162.516
 20
3.125
 10
162.237
 20
2.76256
 10
161.875
 20
2.48446
 10
161.453
 20
2.30963
 10
161
 20
2.25
  0
ENDSEC
  0
EOF
