999
DXF from OpenSCAD
  0
SECTION
  2
HEADER
  9
$ACADVER
  1
AC1006
  9
$INSBASE
 10
0.0
 20
0.0
 30
0.0
  9
$EXTMIN
 10
0
 20
0
  9
$EXTMAX
 10
103
 20
30.5
  9
$LINMIN
 10
0
 20
0
  9
$LINMAX
 10
103
 20
30.5
  0
ENDSEC
  0
SECTION
  2
TABLES
  0
TABLE
  2
LTYPE
 70
1
  0
LTYPE
  2
CONTINUOUS
 70
64
  3
Solid line
 72
65
 73
0
 40
0.000000
  0
ENDTAB
  0
TABLE
  2
LAYER
 70
6
  0
LAYER
  2
0
 70
64
 62
7
  6
CONTINUOUS
  0
ENDTAB
  0
TABLE
  2
STYLE
 70
0
  0
ENDTAB
  0
ENDSEC
  0
SECTION
  2
BLOCKS
  0
ENDSEC
  0
SECTION
  2
ENTITIES
  0
LWPOLYLINE
100
AcDbEntity
  8
0
100
AcDbPolyline
 90
20
 70
1
 10
100.891
 20
0.451303
 10
102.303
 20
1.70182
 10
102.971
 20
3.46509
 10
103
 20
3.94
 10
103
 20
26.56
 10
102.549
 20
28.391
 10
101.298
 20
29.8026
 10
99.5349
 20
30.4713
 10
99.06
 20
30.5
 10
3.94
 20
30.5
 10
2.10899
 20
30.0487
 10
0.697444
 20
28.7982
 10
0.028727
 20
27.0349
 10
0
 20
26.56
 10
0
 20
3.94
 10
0.451303
 20
2.10899
 10
1.70182
 20
0.697444
 10
3.46509
 20
0.028727
 10
3.94
 20
0
 10
99.06
 20
0
  0
LWPOLYLINE
100
AcDbEntity
  8
0
100
AcDbPolyline
 90
24
 70
1
 10
3.54707
 20
24.8096
 10
3.125
 20
24.9845
 10
2.76256
 20
25.2626
 10
2.48446
 20
25.625
 10
2.30963
 20
26.0471
 10
2.25
 20
26.5
 10
2.30963
 20
26.9529
 10
2.48446
 20
27.375
 10
2.76256
 20
27.7374
 10
3.125
 20
28.0155
 10
3.54707
 20
28.1904
 10
4
 20
28.25
 10
4.45293
 20
28.1904
 10
4.875
 20
28.0155
 10
5.23744
 20
27.7374
 10
5.51554
 20
27.375
 10
5.69037
 20
26.9529
 10
5.75
 20
26.5
 10
5.69037
 20
26.0471
 10
5.51554
 20
25.625
 10
5.23744
 20
25.2626
 10
4.875
 20
24.9845
 10
4.45293
 20
24.8096
 10
4
 20
24.75
  0
LWPOLYLINE
100
AcDbEntity
  8
0
100
AcDbPolyline
 90
24
 70
1
 10
98.5471
 20
24.8096
 10
98.125
 20
24.9845
 10
97.7626
 20
25.2626
 10
97.4845
 20
25.625
 10
97.3096
 20
26.0471
 10
97.25
 20
26.5
 10
97.3096
 20
26.9529
 10
97.4845
 20
27.375
 10
97.7626
 20
27.7374
 10
98.125
 20
28.0155
 10
98.5471
 20
28.1904
 10
99
 20
28.25
 10
99.4529
 20
28.1904
 10
99.875
 20
28.0155
 10
100.237
 20
27.7374
 10
100.516
 20
27.375
 10
100.69
 20
26.9529
 10
100.75
 20
26.5
 10
100.69
 20
26.0471
 10
100.516
 20
25.625
 10
100.237
 20
25.2626
 10
99.875
 20
24.9845
 10
99.4529
 20
24.8096
 10
99
 20
24.75
  0
LWPOLYLINE
100
AcDbEntity
  8
0
100
AcDbPolyline
 90
4
 70
1
 10
43.4
 20
6.6
 10
43.4
 20
20.2
 10
60.1
 20
20.2
 10
60.1
 20
6.6
  0
LWPOLYLINE
100
AcDbEntity
  8
0
100
AcDbPolyline
 90
4
 70
1
 10
13
 20
6.6
 10
13
 20
18.1
 10
24.5
 20
18.1
 10
24.5
 20
6.6
  0
LWPOLYLINE
100
AcDbEntity
  8
0
100
AcDbPolyline
 90
4
 70
1
 10
83
 20
6.6
 10
83
 20
10.3
 10
92.5
 20
10.3
 10
92.5
 20
6.6
  0
LWPOLYLINE
100
AcDbEntity
  8
0
100
AcDbPolyline
 90
32
 70
1
 10
65.4086
 20
6.38363
 10
65.0803
 20
6.48321
 10
64.7778
 20
6.64493
 10
64.5126
 20
6.86256
 10
64.2949
 20
7.12775
 10
64.1332
 20
7.4303
 10
64.0336
 20
7.75859
 10
64
 20
8.1
 10
64.0336
 20
8.44141
 10
64.1332
 20
8.7697
 10
64.2949
 20
9.07225
 10
64.5126
 20
9.33744
 10
64.7778
 20
9.55507
 10
65.0803
 20
9.71679
 10
65.4086
 20
9.81637
 10
65.75
 20
9.85
 10
66.0914
 20
9.81637
 10
66.4197
 20
9.71679
 10
66.7222
 20
9.55507
 10
66.9874
 20
9.33744
 10
67.2051
 20
9.07225
 10
67.3668
 20
8.7697
 10
67.4664
 20
8.44141
 10
67.5
 20
8.1
 10
67.4664
 20
7.75859
 10
67.3668
 20
7.4303
 10
67.2051
 20
7.12775
 10
66.9874
 20
6.86256
 10
66.7222
 20
6.64493
 10
66.4197
 20
6.48321
 10
66.0914
 20
6.38363
 10
65.75
 20
6.35
  0
LWPOLYLINE
100
AcDbEntity
  8
0
100
AcDbPolyline
 90
32
 70
1
 10
74.4086
 20
6.38363
 10
74.0803
 20
6.48321
 10
73.7778
 20
6.64493
 10
73.5126
 20
6.86256
 10
73.2949
 20
7.12775
 10
73.1332
 20
7.4303
 10
73.0336
 20
7.75859
 10
73
 20
8.1
 10
73.0336
 20
8.44141
 10
73.1332
 20
8.7697
 10
73.2949
 20
9.07225
 10
73.5126
 20
9.33744
 10
73.7778
 20
9.55507
 10
74.0803
 20
9.71679
 10
74.4086
 20
9.81637
 10
74.75
 20
9.85
 10
75.0914
 20
9.81637
 10
75.4197
 20
9.71679
 10
75.7222
 20
9.55507
 10
75.9874
 20
9.33744
 10
76.2051
 20
9.07225
 10
76.3668
 20
8.7697
 10
76.4664
 20
8.44141
 10
76.5
 20
8.1
 10
76.4664
 20
7.75859
 10
76.3668
 20
7.4303
 10
76.2051
 20
7.12775
 10
75.9874
 20
6.86256
 10
75.7222
 20
6.64493
 10
75.4197
 20
6.48321
 10
75.0914
 20
6.38363
 10
74.75
 20
6.35
  0
LWPOLYLINE
100
AcDbEntity
  8
0
100
AcDbPolyline
 90
24
 70
1
 10
3.54707
 20
2.30963
 10
3.125
 20
2.48446
 10
2.76256
 20
2.76256
 10
2.48446
 20
3.125
 10
2.30963
 20
3.54707
 10
2.25
 20
4
 10
2.30963
 20
4.45293
 10
2.48446
 20
4.875
 10
2.76256
 20
5.23744
 10
3.125
 20
5.51554
 10
3.54707
 20
5.69037
 10
4
 20
5.75
 10
4.45293
 20
5.69037
 10
4.875
 20
5.51554
 10
5.23744
 20
5.23744
 10
5.51554
 20
4.875
 10
5.69037
 20
4.45293
 10
5.75
 20
4
 10
5.69037
 20
3.54707
 10
5.51554
 20
3.125
 10
5.23744
 20
2.76256
 10
4.875
 20
2.48446
 10
4.45293
 20
2.30963
 10
4
 20
2.25
  0
LWPOLYLINE
100
AcDbEntity
  8
0
100
AcDbPolyline
 90
24
 70
1
 10
98.5471
 20
2.30963
 10
98.125
 20
2.48446
 10
97.7626
 20
2.76256
 10
97.4845
 20
3.125
 10
97.3096
 20
3.54707
 10
97.25
 20
4
 10
97.3096
 20
4.45293
 10
97.4845
 20
4.875
 10
97.7626
 20
5.23744
 10
98.125
 20
5.51554
 10
98.5471
 20
5.69037
 10
99
 20
5.75
 10
99.4529
 20
5.69037
 10
99.875
 20
5.51554
 10
100.237
 20
5.23744
 10
100.516
 20
4.875
 10
100.69
 20
4.45293
 10
100.75
 20
4
 10
100.69
 20
3.54707
 10
100.516
 20
3.125
 10
100.237
 20
2.76256
 10
99.875
 20
2.48446
 10
99.4529
 20
2.30963
 10
99
 20
2.25
  0
ENDSEC
  0
EOF
