G04 #@! TF.GenerationSoftware,KiCad,Pcbnew,10.0.1-10.0.1~ubuntu25.10.1*
G04 #@! TF.CreationDate,2026-04-26T18:24:48+00:00*
G04 #@! TF.ProjectId,stencil,7374656e-6369-46c2-9e6b-696361645f70,dev*
G04 #@! TF.SameCoordinates,Original*
G04 #@! TF.FileFunction,Paste,Top*
G04 #@! TF.FilePolarity,Positive*
%FSLAX46Y46*%
G04 Gerber Fmt 4.6, Leading zero omitted, Abs format (unit mm)*
G04 Created by KiCad (PCBNEW 10.0.1-10.0.1~ubuntu25.10.1) date 2026-04-26 18:24:48*
%MOMM*%
%LPD*%
G01*
G04 APERTURE LIST*
G04 Aperture macros list*
%AMRoundRect*
0 Rectangle with rounded corners*
0 $1 Rounding radius*
0 $2 $3 $4 $5 $6 $7 $8 $9 X,Y pos of 4 corners*
0 Add a 4 corners polygon primitive as box body*
4,1,4,$2,$3,$4,$5,$6,$7,$8,$9,$2,$3,0*
0 Add four circle primitives for the rounded corners*
1,1,$1+$1,$2,$3*
1,1,$1+$1,$4,$5*
1,1,$1+$1,$6,$7*
1,1,$1+$1,$8,$9*
0 Add four rect primitives between the rounded corners*
20,1,$1+$1,$2,$3,$4,$5,0*
20,1,$1+$1,$4,$5,$6,$7,0*
20,1,$1+$1,$6,$7,$8,$9,0*
20,1,$1+$1,$8,$9,$2,$3,0*%
%AMRotRect*
0 Rectangle, with rotation*
0 The origin of the aperture is its center*
0 $1 length*
0 $2 width*
0 $3 Rotation angle, in degrees counterclockwise*
0 Add horizontal line*
21,1,$1,$2,0,0,$3*%
G04 Aperture macros list end*
%ADD10C,0.500000*%
%ADD11C,1.050000*%
%ADD12C,1.000000*%
%ADD13RoundRect,0.175000X0.175000X0.332500X-0.175000X0.332500X-0.175000X-0.332500X0.175000X-0.332500X0*%
%ADD14RoundRect,0.175000X-0.183750X-0.315000X0.183750X-0.315000X0.183750X0.315000X-0.183750X0.315000X0*%
%ADD15RoundRect,0.262500X0.262500X-0.437500X0.262500X0.437500X-0.262500X0.437500X-0.262500X-0.437500X0*%
%ADD16RoundRect,0.350000X0.980000X-0.350000X0.980000X0.350000X-0.980000X0.350000X-0.980000X-0.350000X0*%
%ADD17RoundRect,0.175000X-0.332500X0.175000X-0.332500X-0.175000X0.332500X-0.175000X0.332500X0.175000X0*%
%ADD18RoundRect,0.175000X0.332500X-0.175000X0.332500X0.175000X-0.332500X0.175000X-0.332500X-0.175000X0*%
%ADD19RoundRect,0.175000X0.358857X0.111369X0.111369X0.358857X-0.358857X-0.111369X-0.111369X-0.358857X0*%
%ADD20RoundRect,0.105000X0.105000X-0.577500X0.105000X0.577500X-0.105000X0.577500X-0.105000X-0.577500X0*%
%ADD21RoundRect,0.175000X-0.358857X-0.111369X-0.111369X-0.358857X0.358857X0.111369X0.111369X0.358857X0*%
%ADD22RoundRect,0.175000X0.315000X-0.183750X0.315000X0.183750X-0.315000X0.183750X-0.315000X-0.183750X0*%
%ADD23RoundRect,0.175000X0.111369X-0.358857X0.358857X-0.111369X-0.111369X0.358857X-0.358857X0.111369X0*%
%ADD24RoundRect,0.113750X0.551250X-0.113750X0.551250X0.113750X-0.551250X0.113750X-0.551250X-0.113750X0*%
%ADD25RoundRect,0.250000X0.315000X0.460000X-0.315000X0.460000X-0.315000X-0.460000X0.315000X-0.460000X0*%
%ADD26RoundRect,0.105000X0.516250X0.105000X-0.516250X0.105000X-0.516250X-0.105000X0.516250X-0.105000X0*%
%ADD27RoundRect,0.105000X-0.105000X0.411250X-0.105000X-0.411250X0.105000X-0.411250X0.105000X0.411250X0*%
%ADD28RoundRect,0.175000X-0.111369X0.358857X-0.358857X0.111369X0.111369X-0.358857X0.358857X-0.111369X0*%
%ADD29RoundRect,0.175000X0.385000X-1.050000X0.385000X1.050000X-0.385000X1.050000X-0.385000X-1.050000X0*%
%ADD30RoundRect,0.175000X-0.175000X-0.332500X0.175000X-0.332500X0.175000X0.332500X-0.175000X0.332500X0*%
%ADD31RoundRect,0.175000X0.183750X0.315000X-0.183750X0.315000X-0.183750X-0.315000X0.183750X-0.315000X0*%
%ADD32RoundRect,0.175000X-0.352670X-0.092808X-0.092808X-0.352670X0.352670X0.092808X0.092808X0.352670X0*%
%ADD33R,1.645000X3.570000*%
%ADD34RoundRect,0.063000X0.252000X-0.462000X0.252000X0.462000X-0.252000X0.462000X-0.252000X-0.462000X0*%
%ADD35RoundRect,0.175000X-0.315000X0.183750X-0.315000X-0.183750X0.315000X-0.183750X0.315000X0.183750X0*%
%ADD36R,0.560000X0.700000*%
%ADD37R,1.050000X0.490000*%
%ADD38RoundRect,0.105000X0.411250X0.105000X-0.411250X0.105000X-0.411250X-0.105000X0.411250X-0.105000X0*%
%ADD39RoundRect,0.131250X0.498750X-0.131250X0.498750X0.131250X-0.498750X0.131250X-0.498750X-0.131250X0*%
%ADD40RoundRect,0.105000X0.525000X-0.105000X0.525000X0.105000X-0.525000X0.105000X-0.525000X-0.105000X0*%
%ADD41RoundRect,0.157500X0.157500X-0.297500X0.157500X0.297500X-0.157500X0.297500X-0.157500X-0.297500X0*%
%ADD42RoundRect,0.175000X0.092808X-0.352670X0.352670X-0.092808X-0.092808X0.352670X-0.352670X0.092808X0*%
%ADD43RoundRect,0.175000X-0.997500X0.297500X-0.997500X-0.297500X0.997500X-0.297500X0.997500X0.297500X0*%
%ADD44R,2.205000X1.540000*%
%ADD45R,0.420000X1.540000*%
%ADD46R,3.080000X1.540000*%
%ADD47RoundRect,0.105000X-0.105000X-0.437500X0.105000X-0.437500X0.105000X0.437500X-0.105000X0.437500X0*%
%ADD48RoundRect,0.175000X-0.245000X-0.455000X0.245000X-0.455000X0.245000X0.455000X-0.245000X0.455000X0*%
%ADD49RoundRect,0.170625X-0.170625X-0.319375X0.170625X-0.319375X0.170625X0.319375X-0.170625X0.319375X0*%
%ADD50RoundRect,0.105000X-0.358750X-0.105000X0.358750X-0.105000X0.358750X0.105000X-0.358750X0.105000X0*%
%ADD51RoundRect,0.105000X0.297500X-0.105000X0.297500X0.105000X-0.297500X0.105000X-0.297500X-0.105000X0*%
%ADD52RoundRect,0.052500X0.350000X-0.052500X0.350000X0.052500X-0.350000X0.052500X-0.350000X-0.052500X0*%
%ADD53O,1.470000X0.700000*%
%ADD54O,1.260000X0.700000*%
%ADD55RoundRect,0.175000X0.549500X0.731500X-0.549500X0.731500X-0.549500X-0.731500X0.549500X-0.731500X0*%
%ADD56RotRect,0.210000X0.595000X45.000000*%
%ADD57RotRect,0.210000X0.595000X315.000000*%
%ADD58RotRect,2.940000X2.940000X315.000000*%
%ADD59R,0.560000X0.160000*%
%ADD60RoundRect,0.140000X-0.024749X-0.222739X0.222739X0.024749X0.024749X0.222739X-0.222739X-0.024749X0*%
%ADD61RoundRect,0.105000X0.358750X0.105000X-0.358750X0.105000X-0.358750X-0.105000X0.358750X-0.105000X0*%
%ADD62R,1.540000X2.205000*%
%ADD63R,1.540000X0.420000*%
%ADD64R,1.540000X3.080000*%
G04 APERTURE END LIST*
D10*
X-6000000Y750000D02*
X-6000000Y-9250000D01*
X-6000000Y750000D02*
G75*
G02*
X-5000000Y1750000I999999J1D01*
G01*
X-6000000Y-11250000D02*
X-6000000Y-21250000D01*
X-6000000Y-11250000D02*
G75*
G02*
X-5500000Y-10750000I500001J-1D01*
G01*
X-6000000Y-23250000D02*
X-6000000Y-33250000D01*
X-6000000Y-23250000D02*
G75*
G02*
X-5500000Y-22750000I500001J-1D01*
G01*
X-6000000Y-35250000D02*
X-6000000Y-45250000D01*
X-6000000Y-35250000D02*
G75*
G02*
X-5500000Y-34750000I500001J-1D01*
G01*
X-6000000Y-47250000D02*
X-6000000Y-57250000D01*
X-6000000Y-47250000D02*
G75*
G02*
X-5500000Y-46750000I500001J-1D01*
G01*
X-6000000Y-59250000D02*
X-6000000Y-69250000D01*
X-6000000Y-59250000D02*
G75*
G02*
X-5500000Y-58750000I500001J-1D01*
G01*
X-6000000Y-71250000D02*
X-6000000Y-81250000D01*
X-6000000Y-71250000D02*
G75*
G02*
X-5500000Y-70750000I500001J-1D01*
G01*
X-6000000Y-83250000D02*
X-6000000Y-93250000D01*
X-6000000Y-83250000D02*
G75*
G02*
X-5500000Y-82750000I500001J-1D01*
G01*
X-6000000Y-95250000D02*
X-6000000Y-105250000D01*
X-6000000Y-95250000D02*
G75*
G02*
X-5500000Y-94750000I500001J-1D01*
G01*
X-6000000Y-107250000D02*
X-6000000Y-117250000D01*
X-6000000Y-107250000D02*
G75*
G02*
X-5500000Y-106750000I500001J-1D01*
G01*
X-6000000Y-119250000D02*
X-6000000Y-129250000D01*
X-6000000Y-119250000D02*
G75*
G02*
X-5500000Y-118750000I500001J-1D01*
G01*
X-6000000Y-131250000D02*
X-6000000Y-141250000D01*
X-6000000Y-131250000D02*
G75*
G02*
X-5500000Y-130750000I500001J-1D01*
G01*
X-5500000Y-9750000D02*
G75*
G02*
X-6000000Y-9250000I1J500001D01*
G01*
X-5500000Y-21750000D02*
G75*
G02*
X-6000000Y-21250000I1J500001D01*
G01*
X-5500000Y-33750000D02*
G75*
G02*
X-6000000Y-33250000I1J500001D01*
G01*
X-5500000Y-45750000D02*
G75*
G02*
X-6000000Y-45250000I1J500001D01*
G01*
X-5500000Y-57750000D02*
G75*
G02*
X-6000000Y-57250000I1J500001D01*
G01*
X-5500000Y-69750000D02*
G75*
G02*
X-6000000Y-69250000I1J500001D01*
G01*
X-5500000Y-81750000D02*
G75*
G02*
X-6000000Y-81250000I1J500001D01*
G01*
X-5500000Y-93750000D02*
G75*
G02*
X-6000000Y-93250000I1J500001D01*
G01*
X-5500000Y-105750000D02*
G75*
G02*
X-6000000Y-105250000I1J500001D01*
G01*
X-5500000Y-117750000D02*
G75*
G02*
X-6000000Y-117250000I1J500001D01*
G01*
X-5500000Y-129750000D02*
G75*
G02*
X-6000000Y-129250000I1J500001D01*
G01*
X-5000000Y1750000D02*
X5000000Y1750000D01*
X-5000000Y-142250000D02*
G75*
G02*
X-6000000Y-141250000I-1J999999D01*
G01*
X-5000000Y-142250000D02*
X5000000Y-142250000D01*
D11*
X-2225000Y-1500000D02*
G75*
G02*
X-3275000Y-1500000I-525000J0D01*
G01*
X-3275000Y-1500000D02*
G75*
G02*
X-2225000Y-1500000I525000J0D01*
G01*
D12*
X-2250000Y-35875000D02*
G75*
G02*
X-3250000Y-35875000I-500000J0D01*
G01*
X-3250000Y-35875000D02*
G75*
G02*
X-2250000Y-35875000I500000J0D01*
G01*
X-2250000Y-70250000D02*
G75*
G02*
X-3250000Y-70250000I-500000J0D01*
G01*
X-3250000Y-70250000D02*
G75*
G02*
X-2250000Y-70250000I500000J0D01*
G01*
X-2250000Y-104625000D02*
G75*
G02*
X-3250000Y-104625000I-500000J0D01*
G01*
X-3250000Y-104625000D02*
G75*
G02*
X-2250000Y-104625000I500000J0D01*
G01*
D11*
X-2225000Y-139000000D02*
G75*
G02*
X-3275000Y-139000000I-525000J0D01*
G01*
X-3275000Y-139000000D02*
G75*
G02*
X-2225000Y-139000000I525000J0D01*
G01*
D10*
X5000000Y1750000D02*
G75*
G02*
X5500000Y1250000I0J-500000D01*
G01*
X5500000Y-141750000D02*
G75*
G02*
X5000000Y-142250000I-500000J0D01*
G01*
X6500000Y1250000D02*
G75*
G02*
X7000000Y1750000I500000J0D01*
G01*
X7000000Y1750000D02*
X17000000Y1750000D01*
X7000000Y-142250000D02*
G75*
G02*
X6500000Y-141750000I0J500000D01*
G01*
X7000000Y-142250000D02*
X17000000Y-142250000D01*
X17000000Y1750000D02*
G75*
G02*
X17500000Y1250000I0J-500000D01*
G01*
X17500000Y-141750000D02*
G75*
G02*
X17000000Y-142250000I-500000J0D01*
G01*
X18500000Y1250000D02*
G75*
G02*
X19000000Y1750000I500000J0D01*
G01*
X19000000Y1750000D02*
X29000000Y1750000D01*
X19000000Y-142250000D02*
G75*
G02*
X18500000Y-141750000I0J500000D01*
G01*
X19000000Y-142250000D02*
X29000000Y-142250000D01*
X29000000Y1750000D02*
G75*
G02*
X29500000Y1250000I0J-500000D01*
G01*
X29500000Y-141750000D02*
G75*
G02*
X29000000Y-142250000I-500000J0D01*
G01*
X30500000Y1250000D02*
G75*
G02*
X31000000Y1750000I500000J0D01*
G01*
X31000000Y1750000D02*
X41000000Y1750000D01*
X31000000Y-142250000D02*
G75*
G02*
X30500000Y-141750000I0J500000D01*
G01*
X31000000Y-142250000D02*
X41000000Y-142250000D01*
D12*
X32125000Y-1500000D02*
G75*
G02*
X31125000Y-1500000I-500000J0D01*
G01*
X31125000Y-1500000D02*
G75*
G02*
X32125000Y-1500000I500000J0D01*
G01*
X32125000Y-139000000D02*
G75*
G02*
X31125000Y-139000000I-500000J0D01*
G01*
X31125000Y-139000000D02*
G75*
G02*
X32125000Y-139000000I500000J0D01*
G01*
D10*
X41000000Y1750000D02*
G75*
G02*
X41500000Y1250000I0J-500000D01*
G01*
X41500000Y-141750000D02*
G75*
G02*
X41000000Y-142250000I-500000J0D01*
G01*
X42500000Y1250000D02*
G75*
G02*
X43000000Y1750000I500000J0D01*
G01*
X43000000Y1750000D02*
X53000000Y1750000D01*
X43000000Y-142250000D02*
G75*
G02*
X42500000Y-141750000I0J500000D01*
G01*
X43000000Y-142250000D02*
X53000000Y-142250000D01*
X53000000Y1750000D02*
G75*
G02*
X53500000Y1250000I0J-500000D01*
G01*
X53500000Y-141750000D02*
G75*
G02*
X53000000Y-142250000I-500000J0D01*
G01*
X54500000Y1250000D02*
G75*
G02*
X55000000Y1750000I500000J0D01*
G01*
X55000000Y1750000D02*
X65000000Y1750000D01*
X55000000Y-142250000D02*
G75*
G02*
X54500000Y-141750000I0J500000D01*
G01*
X55000000Y-142250000D02*
X65000000Y-142250000D01*
X65000000Y1750000D02*
G75*
G02*
X65500000Y1250000I0J-500000D01*
G01*
X65500000Y-141750000D02*
G75*
G02*
X65000000Y-142250000I-500000J0D01*
G01*
D12*
X66500000Y-1500000D02*
G75*
G02*
X65500000Y-1500000I-500000J0D01*
G01*
X65500000Y-1500000D02*
G75*
G02*
X66500000Y-1500000I500000J0D01*
G01*
X66500000Y-139000000D02*
G75*
G02*
X65500000Y-139000000I-500000J0D01*
G01*
X65500000Y-139000000D02*
G75*
G02*
X66500000Y-139000000I500000J0D01*
G01*
D10*
X66500000Y1250000D02*
G75*
G02*
X67000000Y1750000I500000J0D01*
G01*
X67000000Y1750000D02*
X77000000Y1750000D01*
X67000000Y-142250000D02*
G75*
G02*
X66500000Y-141750000I0J500000D01*
G01*
X67000000Y-142250000D02*
X77000000Y-142250000D01*
X77000000Y1750000D02*
G75*
G02*
X77500000Y1250000I0J-500000D01*
G01*
X77500000Y-141750000D02*
G75*
G02*
X77000000Y-142250000I-500000J0D01*
G01*
X78500000Y1250000D02*
G75*
G02*
X79000000Y1750000I500000J0D01*
G01*
X79000000Y1750000D02*
X89000000Y1750000D01*
X79000000Y-142250000D02*
G75*
G02*
X78500000Y-141750000I0J500000D01*
G01*
X79000000Y-142250000D02*
X89000000Y-142250000D01*
X89000000Y1750000D02*
G75*
G02*
X89500000Y1250000I0J-500000D01*
G01*
X89500000Y-141750000D02*
G75*
G02*
X89000000Y-142250000I-500000J0D01*
G01*
X90500000Y1250000D02*
G75*
G02*
X91000000Y1750000I500000J0D01*
G01*
X91000000Y1750000D02*
X101000000Y1750000D01*
X91000000Y-142250000D02*
G75*
G02*
X90500000Y-141750000I0J500000D01*
G01*
X91000000Y-142250000D02*
X101000000Y-142250000D01*
D12*
X100875000Y-1500000D02*
G75*
G02*
X99875000Y-1500000I-500000J0D01*
G01*
X99875000Y-1500000D02*
G75*
G02*
X100875000Y-1500000I500000J0D01*
G01*
X100875000Y-139000000D02*
G75*
G02*
X99875000Y-139000000I-500000J0D01*
G01*
X99875000Y-139000000D02*
G75*
G02*
X100875000Y-139000000I500000J0D01*
G01*
D10*
X101000000Y1750000D02*
G75*
G02*
X101500000Y1250000I0J-500000D01*
G01*
X101500000Y-141750000D02*
G75*
G02*
X101000000Y-142250000I-500000J0D01*
G01*
X102500000Y1250000D02*
G75*
G02*
X103000000Y1750000I500000J0D01*
G01*
X103000000Y1750000D02*
X113000000Y1750000D01*
X103000000Y-142250000D02*
G75*
G02*
X102500000Y-141750000I0J500000D01*
G01*
X103000000Y-142250000D02*
X113000000Y-142250000D01*
X113000000Y1750000D02*
G75*
G02*
X113500000Y1250000I0J-500000D01*
G01*
X113500000Y-141750000D02*
G75*
G02*
X113000000Y-142250000I-500000J0D01*
G01*
X114500000Y1250000D02*
G75*
G02*
X115000000Y1750000I500000J0D01*
G01*
X115000000Y1750000D02*
X125000000Y1750000D01*
X115000000Y-142250000D02*
G75*
G02*
X114500000Y-141750000I0J500000D01*
G01*
X115000000Y-142250000D02*
X125000000Y-142250000D01*
X125000000Y1750000D02*
G75*
G02*
X125500000Y1250000I0J-500000D01*
G01*
X125500000Y-141750000D02*
G75*
G02*
X125000000Y-142250000I-500000J0D01*
G01*
X126500000Y1250000D02*
G75*
G02*
X127000000Y1750000I500000J0D01*
G01*
X127000000Y1750000D02*
X137000000Y1750000D01*
X127000000Y-142250000D02*
G75*
G02*
X126500000Y-141750000I0J500000D01*
G01*
X127000000Y-142250000D02*
X137000000Y-142250000D01*
D11*
X135275000Y-1500000D02*
G75*
G02*
X134225000Y-1500000I-525000J0D01*
G01*
X134225000Y-1500000D02*
G75*
G02*
X135275000Y-1500000I525000J0D01*
G01*
D12*
X135250000Y-35875000D02*
G75*
G02*
X134250000Y-35875000I-500000J0D01*
G01*
X134250000Y-35875000D02*
G75*
G02*
X135250000Y-35875000I500000J0D01*
G01*
X135250000Y-70250000D02*
G75*
G02*
X134250000Y-70250000I-500000J0D01*
G01*
X134250000Y-70250000D02*
G75*
G02*
X135250000Y-70250000I500000J0D01*
G01*
X135250000Y-104625000D02*
G75*
G02*
X134250000Y-104625000I-500000J0D01*
G01*
X134250000Y-104625000D02*
G75*
G02*
X135250000Y-104625000I500000J0D01*
G01*
D11*
X135275000Y-139000000D02*
G75*
G02*
X134225000Y-139000000I-525000J0D01*
G01*
X134225000Y-139000000D02*
G75*
G02*
X135275000Y-139000000I525000J0D01*
G01*
D10*
X137000000Y1750000D02*
G75*
G02*
X138000000Y750000I0J-1000000D01*
G01*
X137500000Y-10750000D02*
G75*
G02*
X138000000Y-11250000I0J-500000D01*
G01*
X137500000Y-22750000D02*
G75*
G02*
X138000000Y-23250000I0J-500000D01*
G01*
X137500000Y-34750000D02*
G75*
G02*
X138000000Y-35250000I0J-500000D01*
G01*
X137500000Y-46750000D02*
G75*
G02*
X138000000Y-47250000I0J-500000D01*
G01*
X137500000Y-58750000D02*
G75*
G02*
X138000000Y-59250000I0J-500000D01*
G01*
X137500000Y-70750000D02*
G75*
G02*
X138000000Y-71250000I0J-500000D01*
G01*
X137500000Y-82750000D02*
G75*
G02*
X138000000Y-83250000I0J-500000D01*
G01*
X137500000Y-94750000D02*
G75*
G02*
X138000000Y-95250000I0J-500000D01*
G01*
X137500000Y-106750000D02*
G75*
G02*
X138000000Y-107250000I0J-500000D01*
G01*
X137500000Y-118750000D02*
G75*
G02*
X138000000Y-119250000I0J-500000D01*
G01*
X137500000Y-130750000D02*
G75*
G02*
X138000000Y-131250000I0J-500000D01*
G01*
X138000000Y750000D02*
X138000000Y-9250000D01*
X138000000Y-9250000D02*
G75*
G02*
X137500000Y-9750000I-500000J0D01*
G01*
X138000000Y-11250000D02*
X138000000Y-21250000D01*
X138000000Y-21250000D02*
G75*
G02*
X137500000Y-21750000I-500000J0D01*
G01*
X138000000Y-23250000D02*
X138000000Y-33250000D01*
X138000000Y-33250000D02*
G75*
G02*
X137500000Y-33750000I-500000J0D01*
G01*
X138000000Y-35250000D02*
X138000000Y-45250000D01*
X138000000Y-45250000D02*
G75*
G02*
X137500000Y-45750000I-500000J0D01*
G01*
X138000000Y-47250000D02*
X138000000Y-57250000D01*
X138000000Y-57250000D02*
G75*
G02*
X137500000Y-57750000I-500000J0D01*
G01*
X138000000Y-59250000D02*
X138000000Y-69250000D01*
X138000000Y-69250000D02*
G75*
G02*
X137500000Y-69750000I-500000J0D01*
G01*
X138000000Y-71250000D02*
X138000000Y-81250000D01*
X138000000Y-81250000D02*
G75*
G02*
X137500000Y-81750000I-500000J0D01*
G01*
X138000000Y-83250000D02*
X138000000Y-93250000D01*
X138000000Y-93250000D02*
G75*
G02*
X137500000Y-93750000I-500000J0D01*
G01*
X138000000Y-95250000D02*
X138000000Y-105250000D01*
X138000000Y-105250000D02*
G75*
G02*
X137500000Y-105750000I-500000J0D01*
G01*
X138000000Y-107250000D02*
X138000000Y-117250000D01*
X138000000Y-117250000D02*
G75*
G02*
X137500000Y-117750000I-500000J0D01*
G01*
X138000000Y-119250000D02*
X138000000Y-129250000D01*
X138000000Y-129250000D02*
G75*
G02*
X137500000Y-129750000I-500000J0D01*
G01*
X138000000Y-131250000D02*
X138000000Y-141250000D01*
X138000000Y-141250000D02*
G75*
G02*
X137000000Y-142250000I-1000000J0D01*
G01*
D13*
G04 #@! TO.C,C23*
X57512501Y-97849999D03*
X55612501Y-97849999D03*
G04 #@! TD*
D14*
G04 #@! TO.C,R6*
X105537500Y-56050000D03*
X107362500Y-56050000D03*
G04 #@! TD*
D15*
G04 #@! TO.C,U6*
X53410000Y-109110000D03*
X55710000Y-109110000D03*
D16*
X55710000Y-102810000D03*
D15*
X58010000Y-109110000D03*
G04 #@! TD*
D17*
G04 #@! TO.C,C41*
X81500000Y-113550000D03*
X81500000Y-115450000D03*
G04 #@! TD*
D18*
G04 #@! TO.C,C35*
X62300000Y-111299999D03*
X62300000Y-109399999D03*
G04 #@! TD*
D19*
G04 #@! TO.C,C8*
X29901751Y-56451751D03*
X28558249Y-55108249D03*
G04 #@! TD*
D14*
G04 #@! TO.C,R10*
X104697500Y-80620000D03*
X106522500Y-80620000D03*
G04 #@! TD*
D20*
G04 #@! TO.C,U5*
X66045001Y-99462498D03*
X67315001Y-99462498D03*
X68585001Y-99462498D03*
X69855001Y-99462498D03*
X69855001Y-94512498D03*
X68585001Y-94512498D03*
X67315001Y-94512498D03*
X66045001Y-94512498D03*
G04 #@! TD*
D13*
G04 #@! TO.C,C4*
X102500000Y-44600000D03*
X100600000Y-44600000D03*
G04 #@! TD*
D18*
G04 #@! TO.C,C29*
X60300000Y-109600000D03*
X60300000Y-107700000D03*
G04 #@! TD*
D21*
G04 #@! TO.C,C19*
X37178249Y-68028249D03*
X38521751Y-69371751D03*
G04 #@! TD*
D13*
G04 #@! TO.C,C27*
X72100000Y-107249999D03*
X70200000Y-107249999D03*
G04 #@! TD*
D17*
G04 #@! TO.C,C40*
X64290000Y-112849999D03*
X64290000Y-114749999D03*
G04 #@! TD*
D22*
G04 #@! TO.C,R20*
X49350000Y-100712500D03*
X49350000Y-98887500D03*
G04 #@! TD*
D17*
G04 #@! TO.C,C44*
X87450000Y-113550000D03*
X87450000Y-115450000D03*
G04 #@! TD*
D14*
G04 #@! TO.C,R13*
X92580500Y-80549000D03*
X94405500Y-80549000D03*
G04 #@! TD*
D23*
G04 #@! TO.C,C12*
X44128249Y-60721751D03*
X45471751Y-59378249D03*
G04 #@! TD*
D24*
G04 #@! TO.C,J4*
X23995080Y-68095000D03*
X23995080Y-69365000D03*
X23995080Y-70635000D03*
X23995080Y-71905000D03*
X23995080Y-73175000D03*
X23995080Y-74445000D03*
X23995080Y-75715000D03*
X23995080Y-76985000D03*
X23995080Y-78255000D03*
X23995080Y-79525000D03*
X23995080Y-80795000D03*
X23995080Y-82065000D03*
X23995080Y-83335000D03*
X23995080Y-84605000D03*
X23995080Y-85875000D03*
X23995080Y-54130000D03*
X23995080Y-55400000D03*
X23995080Y-56670000D03*
X23995080Y-57940000D03*
X23995080Y-59210000D03*
X23995080Y-60480000D03*
X23995080Y-61750000D03*
G04 #@! TD*
D14*
G04 #@! TO.C,R27*
X73887500Y-115199999D03*
X75712500Y-115199999D03*
G04 #@! TD*
G04 #@! TO.C,R11*
X41687500Y-82300000D03*
X43512500Y-82300000D03*
G04 #@! TD*
D25*
G04 #@! TO.C,U7*
X77480000Y-112369106D03*
X77480000Y-110669106D03*
X76120000Y-112369106D03*
X76120000Y-110669106D03*
D26*
X79362500Y-113424106D03*
X79362500Y-112154106D03*
X79362500Y-110884106D03*
X79362500Y-109614106D03*
X74237500Y-109614106D03*
X74237500Y-110884106D03*
X74237500Y-112154106D03*
X74237500Y-113424106D03*
G04 #@! TD*
D27*
G04 #@! TO.C,Q1*
X64412501Y-94262499D03*
X62512501Y-94262499D03*
X63462501Y-96137499D03*
G04 #@! TD*
D28*
G04 #@! TO.C,C21*
X35024749Y-68388249D03*
X33681247Y-69731751D03*
G04 #@! TD*
D17*
G04 #@! TO.C,C39*
X62290000Y-112849999D03*
X62290000Y-114749999D03*
G04 #@! TD*
D22*
G04 #@! TO.C,R25*
X72150000Y-110862499D03*
X72150000Y-109037499D03*
G04 #@! TD*
D29*
G04 #@! TO.C,C26*
X88920000Y-107570000D03*
X88920000Y-102170000D03*
G04 #@! TD*
D30*
G04 #@! TO.C,C45*
X77230000Y-115199999D03*
X79130000Y-115199999D03*
G04 #@! TD*
D31*
G04 #@! TO.C,R17*
X73262501Y-97087498D03*
X71437501Y-97087498D03*
G04 #@! TD*
D21*
G04 #@! TO.C,C16*
X45008249Y-64638249D03*
X46351751Y-65981751D03*
G04 #@! TD*
D18*
G04 #@! TO.C,C30*
X96000000Y-110000000D03*
X96000000Y-108100000D03*
G04 #@! TD*
D19*
G04 #@! TO.C,C6*
X34871751Y-55821751D03*
X33528249Y-54478249D03*
G04 #@! TD*
D32*
G04 #@! TO.C,R4*
X35104765Y-53304765D03*
X36395235Y-54595235D03*
G04 #@! TD*
D21*
G04 #@! TO.C,C17*
X44421497Y-66828248D03*
X45764999Y-68171750D03*
G04 #@! TD*
D33*
G04 #@! TO.C,L1*
X71678943Y-115327147D03*
X67528943Y-115327147D03*
G04 #@! TD*
D34*
G04 #@! TO.C,D1*
X107350000Y-49450000D03*
X110650000Y-49450000D03*
X110650000Y-44550000D03*
X107350000Y-44550000D03*
G04 #@! TD*
D35*
G04 #@! TO.C,R12*
X106470000Y-57807500D03*
X106470000Y-59632500D03*
G04 #@! TD*
D30*
G04 #@! TO.C,C22*
X96099000Y-80549000D03*
X97999000Y-80549000D03*
G04 #@! TD*
D28*
G04 #@! TO.C,C18*
X33631751Y-67009391D03*
X32288249Y-68352893D03*
G04 #@! TD*
D36*
G04 #@! TO.C,J2*
X93810000Y-48600000D03*
X96020000Y-48600000D03*
X93810000Y-41300000D03*
X96020000Y-41300000D03*
D37*
X93160000Y-47200000D03*
X93160000Y-44200000D03*
X93160000Y-42700000D03*
G04 #@! TD*
D13*
G04 #@! TO.C,C28*
X79300000Y-107799999D03*
X77400000Y-107799999D03*
G04 #@! TD*
D38*
G04 #@! TO.C,Q5*
X49397501Y-104900000D03*
X49397501Y-103000000D03*
X47522501Y-103950000D03*
G04 #@! TD*
D35*
G04 #@! TO.C,R14*
X71400001Y-91174998D03*
X71400001Y-92999998D03*
G04 #@! TD*
D39*
G04 #@! TO.C,SW1*
X109604000Y-57225000D03*
X109604000Y-54775000D03*
D40*
X109604000Y-56000000D03*
D41*
X111554000Y-57850000D03*
X111554000Y-54150000D03*
G04 #@! TD*
D42*
G04 #@! TO.C,R9*
X42754765Y-59345235D03*
X44045235Y-58054765D03*
G04 #@! TD*
D18*
G04 #@! TO.C,C1*
X102150000Y-31650000D03*
X102150000Y-29750000D03*
G04 #@! TD*
D32*
G04 #@! TO.C,R5*
X30154765Y-53954765D03*
X31445235Y-55245235D03*
G04 #@! TD*
D14*
G04 #@! TO.C,R22*
X46077499Y-106600000D03*
X47902499Y-106600000D03*
G04 #@! TD*
D17*
G04 #@! TO.C,C46*
X96050000Y-117150000D03*
X96050000Y-119050000D03*
G04 #@! TD*
D43*
G04 #@! TO.C,F1*
X99200000Y-108950000D03*
X99200000Y-114750000D03*
G04 #@! TD*
D22*
G04 #@! TO.C,R16*
X56612501Y-96062499D03*
X56612501Y-94237499D03*
G04 #@! TD*
D21*
G04 #@! TO.C,C20*
X42832284Y-68317462D03*
X44175786Y-69660964D03*
G04 #@! TD*
D35*
G04 #@! TO.C,R15*
X73300001Y-92374998D03*
X73300001Y-94199998D03*
G04 #@! TD*
D44*
G04 #@! TO.C,Q2*
X30285000Y-104407500D03*
D45*
X32825000Y-104407500D03*
D46*
X30920000Y-99207500D03*
G04 #@! TD*
D21*
G04 #@! TO.C,C14*
X46376249Y-63234391D03*
X47719751Y-64577893D03*
G04 #@! TD*
D38*
G04 #@! TO.C,Q4*
X36607500Y-104897500D03*
X36607500Y-102997500D03*
X34732500Y-103947500D03*
G04 #@! TD*
D47*
G04 #@! TO.C,J3*
X93220000Y-54055000D03*
X94220000Y-54055000D03*
X95220000Y-54055000D03*
D48*
X91920000Y-51530000D03*
X96520000Y-51530000D03*
G04 #@! TD*
D49*
G04 #@! TO.C,D2*
X97262500Y-56200000D03*
X99137500Y-56200000D03*
G04 #@! TD*
D19*
G04 #@! TO.C,C15*
X30931751Y-65231751D03*
X29588249Y-63888249D03*
G04 #@! TD*
G04 #@! TO.C,C13*
X32311751Y-63851751D03*
X30968249Y-62508249D03*
G04 #@! TD*
D17*
G04 #@! TO.C,C25*
X60300000Y-102800000D03*
X60300000Y-104700000D03*
G04 #@! TD*
D44*
G04 #@! TO.C,Q3*
X43065000Y-104400000D03*
D45*
X45605000Y-104400000D03*
D46*
X43700000Y-99200000D03*
G04 #@! TD*
D18*
G04 #@! TO.C,C32*
X81500000Y-111100000D03*
X81500000Y-109200000D03*
G04 #@! TD*
D50*
G04 #@! TO.C,U2*
X100212500Y-46587500D03*
X100212500Y-47537500D03*
X100212500Y-48487500D03*
X102487500Y-48487500D03*
X102487500Y-46587500D03*
G04 #@! TD*
D51*
G04 #@! TO.C,J1*
X106130000Y-37200000D03*
X106130000Y-36400000D03*
D52*
X106130000Y-35250000D03*
X106130000Y-34250000D03*
X106130000Y-33750000D03*
X106130000Y-32750000D03*
D51*
X106130000Y-31600000D03*
X106130000Y-30800000D03*
X106130000Y-30800000D03*
X106130000Y-31600000D03*
D52*
X106130000Y-32250000D03*
X106130000Y-33250000D03*
X106130000Y-34750000D03*
X106130000Y-35750000D03*
D51*
X106130000Y-36400000D03*
X106130000Y-37200000D03*
D53*
X106705000Y-38320000D03*
D54*
X110885000Y-38320000D03*
D53*
X106705000Y-29680000D03*
D54*
X110885000Y-29680000D03*
G04 #@! TD*
D23*
G04 #@! TO.C,C5*
X38428249Y-55021751D03*
X39771751Y-53678249D03*
G04 #@! TD*
D30*
G04 #@! TO.C,C2*
X108250000Y-40600000D03*
X110150000Y-40600000D03*
G04 #@! TD*
D14*
G04 #@! TO.C,R21*
X33237500Y-106607500D03*
X35062500Y-106607500D03*
G04 #@! TD*
D18*
G04 #@! TO.C,C33*
X83500000Y-111100000D03*
X83500000Y-109200000D03*
G04 #@! TD*
D55*
G04 #@! TO.C,C38*
X60020000Y-112799999D03*
X53780000Y-112799999D03*
G04 #@! TD*
D35*
G04 #@! TO.C,R2*
X104000000Y-36487500D03*
X104000000Y-38312500D03*
G04 #@! TD*
D31*
G04 #@! TO.C,R24*
X66216443Y-107677147D03*
X64391443Y-107677147D03*
G04 #@! TD*
D50*
G04 #@! TO.C,U1*
X100741900Y-33191500D03*
X100741900Y-34141500D03*
X100741900Y-35091500D03*
X103016900Y-35091500D03*
X103016900Y-34141500D03*
X103016900Y-33191500D03*
G04 #@! TD*
D14*
G04 #@! TO.C,R1*
X102087500Y-28000000D03*
X103912500Y-28000000D03*
G04 #@! TD*
D49*
G04 #@! TO.C,D3*
X97262500Y-58400000D03*
X99137500Y-58400000D03*
G04 #@! TD*
D18*
G04 #@! TO.C,C36*
X64300000Y-111299999D03*
X64300000Y-109399999D03*
G04 #@! TD*
D56*
G04 #@! TO.C,U3*
X37005025Y-56615938D03*
X36651472Y-56969491D03*
X36297918Y-57323045D03*
X35944365Y-57676598D03*
X35590812Y-58030152D03*
X35237258Y-58383705D03*
X34883705Y-58737258D03*
X34530152Y-59090812D03*
X34176598Y-59444365D03*
X33823045Y-59797918D03*
X33469491Y-60151472D03*
X33115938Y-60505025D03*
D57*
X33115938Y-61494975D03*
X33469491Y-61848528D03*
X33823045Y-62202082D03*
X34176598Y-62555635D03*
X34530152Y-62909188D03*
X34883705Y-63262742D03*
X35237258Y-63616295D03*
X35590812Y-63969848D03*
X35944365Y-64323402D03*
X36297918Y-64676955D03*
X36651472Y-65030509D03*
X37005025Y-65384062D03*
D56*
X37994975Y-65384062D03*
X38348528Y-65030509D03*
X38702082Y-64676955D03*
X39055635Y-64323402D03*
X39409188Y-63969848D03*
X39762742Y-63616295D03*
X40116295Y-63262742D03*
X40469848Y-62909188D03*
X40823402Y-62555635D03*
X41176955Y-62202082D03*
X41530509Y-61848528D03*
X41884062Y-61494975D03*
D57*
X41884062Y-60505025D03*
X41530509Y-60151472D03*
X41176955Y-59797918D03*
X40823402Y-59444365D03*
X40469848Y-59090812D03*
X40116295Y-58737258D03*
X39762742Y-58383705D03*
X39409188Y-58030152D03*
X39055635Y-57676598D03*
X38702082Y-57323045D03*
X38348528Y-56969491D03*
X37994975Y-56615938D03*
D58*
X37500000Y-61000000D03*
G04 #@! TD*
D59*
G04 #@! TO.C,CM1*
X87500000Y-68800000D03*
X84420000Y-68800000D03*
X87500000Y-68400000D03*
X84420000Y-68400000D03*
X87500000Y-68000000D03*
X84420000Y-68000000D03*
X87500000Y-67600000D03*
X84420000Y-67600000D03*
X87500000Y-67200000D03*
X84420000Y-67200000D03*
X87500000Y-66800000D03*
X84420000Y-66800000D03*
X87500000Y-66400000D03*
X84420000Y-66400000D03*
X87500000Y-66000000D03*
X84420000Y-66000000D03*
X87500000Y-65600000D03*
X84420000Y-65600000D03*
X87500000Y-65200000D03*
X84420000Y-65200000D03*
X87500000Y-64800000D03*
X84420000Y-64800000D03*
X87500000Y-64400000D03*
X84420000Y-64400000D03*
X87500000Y-64000000D03*
X84420000Y-64000000D03*
X87500000Y-63600000D03*
X84420000Y-63600000D03*
X87500000Y-63200000D03*
X84420000Y-63200000D03*
X87500000Y-62800000D03*
X84420000Y-62800000D03*
X87500000Y-62400000D03*
X84420000Y-62400000D03*
X87500000Y-62000000D03*
X84420000Y-62000000D03*
X87500000Y-61600000D03*
X84420000Y-61600000D03*
X87500000Y-61200000D03*
X84420000Y-61200000D03*
X87500000Y-60800000D03*
X84420000Y-60800000D03*
X87500000Y-60400000D03*
X84420000Y-60400000D03*
X87500000Y-60000000D03*
X84420000Y-60000000D03*
X87500000Y-59600000D03*
X84420000Y-59600000D03*
X87500000Y-59200000D03*
X84420000Y-59200000D03*
X87500000Y-58800000D03*
X84420000Y-58800000D03*
X87500000Y-58400000D03*
X84420000Y-58400000D03*
X87500000Y-58000000D03*
X84420000Y-58000000D03*
X87500000Y-57600000D03*
X84420000Y-57600000D03*
X87500000Y-57200000D03*
X84420000Y-57200000D03*
X87500000Y-56800000D03*
X84420000Y-56800000D03*
X87500000Y-56400000D03*
X84420000Y-56400000D03*
X87500000Y-56000000D03*
X84420000Y-56000000D03*
X87500000Y-55600000D03*
X84420000Y-55600000D03*
X87500000Y-55200000D03*
X84420000Y-55200000D03*
X87500000Y-54800000D03*
X84420000Y-54800000D03*
X87500000Y-54400000D03*
X84420000Y-54400000D03*
X87500000Y-54000000D03*
X84420000Y-54000000D03*
X87500000Y-53600000D03*
X84420000Y-53600000D03*
X87500000Y-53200000D03*
X84420000Y-53200000D03*
X87500000Y-52800000D03*
X84420000Y-52800000D03*
X87500000Y-52400000D03*
X84420000Y-52400000D03*
X87500000Y-52000000D03*
X84420000Y-52000000D03*
X87500000Y-51600000D03*
X84420000Y-51600000D03*
X87500000Y-51200000D03*
X84420000Y-51200000D03*
X87500000Y-50800000D03*
X84420000Y-50800000D03*
X87500000Y-50400000D03*
X84420000Y-50400000D03*
X87500000Y-50000000D03*
X84420000Y-50000000D03*
X87500000Y-49600000D03*
X84420000Y-49600000D03*
X87500000Y-49200000D03*
X84420000Y-49200000D03*
X53580000Y-68800000D03*
X50500000Y-68800000D03*
X53580000Y-68400000D03*
X50500000Y-68400000D03*
X53580000Y-68000000D03*
X50500000Y-68000000D03*
X53580000Y-67600000D03*
X50500000Y-67600000D03*
X53580000Y-67200000D03*
X50500000Y-67200000D03*
X53580000Y-66800000D03*
X50500000Y-66800000D03*
X53580000Y-66400000D03*
X50500000Y-66400000D03*
X53580000Y-66000000D03*
X50500000Y-66000000D03*
X53580000Y-65600000D03*
X50500000Y-65600000D03*
X53580000Y-65200000D03*
X50500000Y-65200000D03*
X53580000Y-64800000D03*
X50500000Y-64800000D03*
X53580000Y-64400000D03*
X50500000Y-64400000D03*
X53580000Y-64000000D03*
X50500000Y-64000000D03*
X53580000Y-63600000D03*
X50500000Y-63600000D03*
X53580000Y-63200000D03*
X50500000Y-63200000D03*
X53580000Y-62800000D03*
X50500000Y-62800000D03*
X53580000Y-62400000D03*
X50500000Y-62400000D03*
X53580000Y-62000000D03*
X50500000Y-62000000D03*
X53580000Y-61600000D03*
X50500000Y-61600000D03*
X53580000Y-61200000D03*
X50500000Y-61200000D03*
X53580000Y-60800000D03*
X50500000Y-60800000D03*
X53580000Y-60400000D03*
X50500000Y-60400000D03*
X53580000Y-60000000D03*
X50500000Y-60000000D03*
X53580000Y-59600000D03*
X50500000Y-59600000D03*
X53580000Y-59200000D03*
X50500000Y-59200000D03*
X53580000Y-58800000D03*
X50500000Y-58800000D03*
X53580000Y-58400000D03*
X50500000Y-58400000D03*
X53580000Y-58000000D03*
X50500000Y-58000000D03*
X53580000Y-57600000D03*
X50500000Y-57600000D03*
X53580000Y-57200000D03*
X50500000Y-57200000D03*
X53580000Y-56800000D03*
X50500000Y-56800000D03*
X53580000Y-56400000D03*
X50500000Y-56400000D03*
X53580000Y-56000000D03*
X50500000Y-56000000D03*
X53580000Y-55600000D03*
X50500000Y-55600000D03*
X53580000Y-55200000D03*
X50500000Y-55200000D03*
X53580000Y-54800000D03*
X50500000Y-54800000D03*
X53580000Y-54400000D03*
X50500000Y-54400000D03*
X53580000Y-54000000D03*
X50500000Y-54000000D03*
X53580000Y-53600000D03*
X50500000Y-53600000D03*
X53580000Y-53200000D03*
X50500000Y-53200000D03*
X53580000Y-52800000D03*
X50500000Y-52800000D03*
X53580000Y-52400000D03*
X50500000Y-52400000D03*
X53580000Y-52000000D03*
X50500000Y-52000000D03*
X53580000Y-51600000D03*
X50500000Y-51600000D03*
X53580000Y-51200000D03*
X50500000Y-51200000D03*
X53580000Y-50800000D03*
X50500000Y-50800000D03*
X53580000Y-50400000D03*
X50500000Y-50400000D03*
X53580000Y-50000000D03*
X50500000Y-50000000D03*
X53580000Y-49600000D03*
X50500000Y-49600000D03*
X53580000Y-49200000D03*
X50500000Y-49200000D03*
G04 #@! TD*
D14*
G04 #@! TO.C,R19*
X71487501Y-99187498D03*
X73312501Y-99187498D03*
G04 #@! TD*
G04 #@! TO.C,R18*
X59050001Y-97799999D03*
X60875001Y-97799999D03*
G04 #@! TD*
D23*
G04 #@! TO.C,C10*
X41376249Y-57971751D03*
X42719751Y-56628249D03*
G04 #@! TD*
D19*
G04 #@! TO.C,C9*
X33875751Y-57651751D03*
X32532249Y-56308249D03*
G04 #@! TD*
G04 #@! TO.C,C11*
X32471751Y-59071751D03*
X31128249Y-57728249D03*
G04 #@! TD*
D22*
G04 #@! TO.C,R26*
X68250000Y-111262499D03*
X68250000Y-109437499D03*
G04 #@! TD*
D60*
G04 #@! TO.C,Y1*
X41612121Y-67407865D03*
X42602070Y-66417916D03*
X41824253Y-65640099D03*
X40834304Y-66630048D03*
G04 #@! TD*
D23*
G04 #@! TO.C,C7*
X40528249Y-56021751D03*
X41871751Y-54678249D03*
G04 #@! TD*
D14*
G04 #@! TO.C,R3*
X102587500Y-50300000D03*
X104412500Y-50300000D03*
G04 #@! TD*
D17*
G04 #@! TO.C,C42*
X83470000Y-113550000D03*
X83470000Y-115450000D03*
G04 #@! TD*
D61*
G04 #@! TO.C,U4*
X60750001Y-96099999D03*
X60750001Y-95149999D03*
X60750001Y-94199999D03*
X58475001Y-94199999D03*
X58475001Y-96099999D03*
G04 #@! TD*
D18*
G04 #@! TO.C,C31*
X70200000Y-110899999D03*
X70200000Y-108999999D03*
G04 #@! TD*
D62*
G04 #@! TO.C,Q6*
X90855255Y-112934107D03*
D63*
X90855255Y-115474107D03*
D64*
X96055255Y-113569107D03*
G04 #@! TD*
D14*
G04 #@! TO.C,R8*
X100687500Y-58400000D03*
X102512500Y-58400000D03*
G04 #@! TD*
G04 #@! TO.C,R7*
X100687500Y-56200000D03*
X102512500Y-56200000D03*
G04 #@! TD*
D22*
G04 #@! TO.C,R23*
X49975000Y-108257500D03*
X49975000Y-106432500D03*
G04 #@! TD*
D18*
G04 #@! TO.C,C34*
X85500000Y-111100000D03*
X85500000Y-109200000D03*
G04 #@! TD*
D13*
G04 #@! TO.C,C3*
X102400000Y-42450000D03*
X100500000Y-42450000D03*
G04 #@! TD*
D18*
G04 #@! TO.C,C37*
X66300000Y-111299999D03*
X66300000Y-109399999D03*
G04 #@! TD*
D13*
G04 #@! TO.C,C24*
X64500001Y-99737498D03*
X62600001Y-99737498D03*
G04 #@! TD*
D17*
G04 #@! TO.C,C43*
X85450000Y-113550000D03*
X85450000Y-115450000D03*
G04 #@! TD*
M02*
